<?xml version="1.0" encoding="UTF-8"?>
<svg width="80px" height="79px" viewBox="0 0 80 79" version="1.1" xmlns="http://www.w3.org/2000/svg" xmlns:xlink="http://www.w3.org/1999/xlink">
    <!-- Generator: Sketch 55.2 (78181) - https://sketchapp.com -->
    <title>3</title>
    <desc>Created with Sketch.</desc>
    <g id="Page-1" stroke="none" stroke-width="1" fill="none" fill-rule="evenodd">
        <g id="Fotocloud_Upload_Photo-Copy-5" transform="translate(-1109.000000, -874.000000)" fill="#C4D2CC" fill-rule="nonzero">
            <g id="2" transform="translate(0.000000, 655.000000)">
                <g id="3" transform="translate(1109.000000, 219.000000)">
                    <path d="M1.66582057,28.1832393 C1.68356424,28.1450108 1.7016673,28.1052545 1.720135,28.0639329 C2.47731281,26.3697425 5.03729491,24.5313656 6.19108967,23.4499674 C7.38094051,22.3685692 10.9865491,19.7732136 12.8254095,18.4394892 C14.6642699,17.1057648 15.7820086,15.5918074 16.1065133,13.8976169 C16.4310181,12.2034265 17.0800276,11.0138885 18.1977663,10.2569097 C19.315505,9.53597763 20.4332437,8.6708591 21.5870384,8.63481249 C22.7408332,8.63481249 24.6878618,8.77899892 25.3729274,8.74295231 C26.0940492,8.81504552 26.2743296,8.56271928 25.4810957,8.52667268 C24.6878618,8.23829983 20.9740849,8.16620662 20.5053558,7.58946093 C20.242527,7.28916412 19.8037504,6.51002426 19.0872354,5.82191883 C25.1721787,2.12941554 32.3342657,0 40,0 C62.09139,0 80,17.6847524 80,39.5 C80,52.3623974 73.7743395,63.7888899 64.1363697,71.0012932 C63.8937224,70.612685 63.7118556,70.401984 63.7118556,70.401984 C63.7118556,70.401984 64.6678403,69.6003646 65.1458326,69.3215405 C65.623825,69.0427163 65.513519,68.310803 65.513519,68.310803 C65.513519,68.310803 65.9179741,67.9274198 66.3959665,67.7183017 C66.8739588,67.5440366 66.8004215,66.5332991 66.8004215,66.5332991 C66.8004215,66.5332991 67.2784139,66.1150628 67.8667122,65.7665327 C68.4550104,65.4180025 68.3447045,64.372412 68.3447045,64.372412 C68.3447045,64.372412 68.8226969,63.6753516 69.6683756,63.0479973 C70.4772858,62.420643 70.146368,61.7235826 70.146368,61.7235826 C70.146368,61.7235826 70.4405171,61.1659343 70.8449722,60.608286 C71.2494273,60.0506378 70.7346663,59.5626955 70.7346663,59.5626955 C70.7346663,59.5626955 70.7714349,57.7503386 70.661129,58.0291627 C70.550823,58.2731339 69.5213011,59.5975485 67.9034808,61.2356404 C66.2856605,62.8737322 61.8366548,64.476971 61.2115879,65.1740314 C60.586521,65.8710917 59.5937676,66.2544749 59.5937676,66.2544749 C59.5937676,66.2544749 59.556999,65.0346193 59.7776108,64.407265 C59.9982227,63.7799107 59.446693,63.1874094 59.446693,63.1874094 C59.446693,63.1874094 59.4099244,62.3857899 59.4099244,61.7932886 C59.3731558,61.2356404 58.931932,60.8522572 58.931932,60.8522572 C58.931932,60.8522572 58.8951634,60.6431391 58.8951634,60.1900498 C58.8951634,59.7369606 58.417171,59.9112257 58.0862533,61.2007873 C57.7921041,62.455496 57.5714923,65.2785904 57.5714923,65.2785904 C57.5714923,65.2785904 57.0934999,64.6163831 55.4021424,64.7209421 C53.7107848,64.8255012 53.0121806,66.359034 52.6812628,66.7424172 C52.350345,67.1258004 49.8500774,67.2652124 49.3353164,67.4743305 C48.8205554,67.5091836 48.9308613,67.6834486 49.4456223,67.7183017 C49.886846,67.7183017 51.2105171,67.5788896 51.9826586,67.5440366 C52.7548001,67.5440366 53.5637102,68.0319788 54.3358517,68.4850681 C55.1079932,68.9381573 55.5859856,69.6700707 55.8433661,70.7505142 C56.1375152,71.8309578 56.9096567,72.7719892 58.1965592,73.5736086 C58.4728884,73.7457358 58.8051617,73.9532159 59.1649857,74.1794865 C53.4740292,77.2528669 46.9436297,79 40,79 C17.90861,79 0,61.3152476 0,39.5 C0,35.5670176 0.582083902,31.7682888 1.66582057,28.1832393 Z M43.115,38.9 C43.838337,38.8066662 44.497497,38.590835 45.0925,38.2525 C45.687503,37.914165 46.1949979,37.5 46.615,37.01 C47.0350021,36.5199976 47.3558322,35.9600032 47.5775,35.33 C47.7991678,34.6999969 47.91,34.023337 47.91,33.3 C47.91,32.366662 47.7291685,31.5150039 47.3675,30.745 C47.0058315,29.9749962 46.5041699,29.3100028 45.8625,28.75 C45.2208301,28.1899972 44.4625044,27.7583349 43.5875,27.455 C42.7124956,27.1516652 41.7500053,27 40.7,27 C39.8599958,27 39.0608371,27.0991657 38.3025,27.2975 C37.5441629,27.4958343 36.8441699,27.7816648 36.2025,28.155 C35.5608301,28.5283352 35.0008357,28.9716641 34.5225,29.485 C34.0441643,29.9983359 33.6650014,30.5699969 33.385,31.2 L34.575,32.18 C35.0650025,31.0833279 35.8349948,30.2141699 36.885,29.5725 C37.9350053,28.9308301 39.159993,28.61 40.56,28.61 C41.3533373,28.61 42.08833,28.7208322 42.765,28.9425 C43.4416701,29.1641678 44.0249976,29.4849979 44.515,29.905 C45.0050025,30.3250021 45.3899986,30.832497 45.67,31.4275 C45.9500014,32.022503 46.09,32.7049962 46.09,33.475 C46.09,34.8983405 45.5883384,36.0358291 44.585,36.8875 C43.5816617,37.7391709 42.1350095,38.165 40.245,38.165 L39.335,38.165 L39.335,39.705 L40.175,39.705 C42.2050102,39.705 43.7741611,40.2066617 44.8825,41.21 C45.9908389,42.2133384 46.545,43.5666582 46.545,45.27 C46.545,46.9733419 46.0083387,48.3033286 44.935,49.26 C43.8616613,50.2166715 42.4033426,50.695 40.56,50.695 C38.9966589,50.695 37.6783387,50.3683366 36.605,49.715 C35.5316613,49.0616634 34.761669,48.1750056 34.295,47.055 L33,48.105 C33.6066697,49.4116732 34.5749934,50.4383296 35.905,51.185 C37.2350067,51.9316704 38.7749913,52.305 40.525,52.305 C41.6916725,52.305 42.7533286,52.135835 43.71,51.7975 C44.6666715,51.459165 45.4891632,50.9866697 46.1775,50.38 C46.8658368,49.7733303 47.4024981,49.0441709 47.7875,48.1925 C48.1725019,47.3408291 48.365,46.3900053 48.365,45.34 C48.365,43.6366582 47.8866715,42.2016725 46.93,41.035 C45.9733286,39.8683275 44.7016746,39.156668 43.115,38.9 Z" id="Combined-Shape"></path>
                </g>
            </g>
        </g>
    </g>
</svg>