<?xml version="1.0" encoding="UTF-8"?>
<svg width="700px" height="472px" viewBox="0 0 700 472" version="1.1" xmlns="http://www.w3.org/2000/svg" xmlns:xlink="http://www.w3.org/1999/xlink">
    <!-- Generator: Sketch 55.2 (78181) - https://sketchapp.com -->
    <title>Path</title>
    <desc>Created with Sketch.</desc>
    <g id="Page-1" stroke="none" stroke-width="1" fill="none" fill-rule="evenodd">
        <g id="Fotocloud_Upload_Photo-Copy-5" transform="translate(-293.000000, -841.000000)" fill="#FAFAFA" stroke="#F2F3F7">
            <g id="2" transform="translate(0.000000, 655.000000)">
                <g id="Path">
                    <path d="M304.638674,487.594669 C320.970636,480.959922 400.297311,476.536757 410.79643,464.373054 C421.295549,452.209351 443.460355,403.554538 497.122517,400.237164 C550.784679,396.919791 565.950073,417.929823 565.950073,417.929823 C565.950073,417.929823 572.949485,328.360736 582.282035,288.552253 C592.781154,247.637979 607.946548,242.109023 607.946548,256.484308 C607.946548,270.859594 609.113117,277.494341 609.113117,277.494341 C609.113117,277.494341 623.111942,289.658044 624.27851,307.350703 C624.27851,326.149154 625.445079,351.582351 625.445079,351.582351 C625.445079,351.582351 642.94361,370.380802 635.944198,390.285043 C628.944785,410.189285 630.111354,448.891977 630.111354,448.891977 C630.111354,448.891977 661.60871,436.728274 681.440379,414.61245 C701.272048,392.496626 842.426866,341.630231 893.755891,289.658044 C945.084915,237.685858 977.74884,195.665792 981.248547,187.925254 C984.748253,179.078924 983.581684,236.580067 983.581684,236.580067 C983.581684,236.580067 999.913646,252.061143 987.08139,269.753803 C974.249134,287.446462 964.916584,305.139121 964.916584,305.139121 C964.916584,305.139121 975.415703,327.254945 949.75119,347.159187 C922.920109,367.063428 907.754716,389.179252 907.754716,389.179252 C907.754716,389.179252 911.254422,422.352988 892.589322,433.4109 C873.924222,444.468812 858.758828,457.738307 858.758828,457.738307 C858.758828,457.738307 861.091966,489.806251 845.926572,495.335207 C830.761178,501.969955 817.928922,514.133658 817.928922,514.133658 C817.928922,514.133658 821.428628,537.355273 806.263235,546.201603 C791.097841,555.047932 760.767054,580.48113 760.767054,580.48113 C760.767054,580.48113 792.26441,616.972239 806.263235,676.684964 C819.095491,736.397689 871.591084,793.898831 922.920109,823.755194 C974.249134,852.505765 943.918347,850.294182 904.255009,831.495732 C863.425103,812.697282 817.928922,795.004622 817.928922,795.004622 C817.928922,795.004622 845.926572,841.447853 849.426278,861.352094 C852.925985,881.256336 850.592847,900.054786 833.094316,866.88105 C815.595785,833.707314 759.600485,798.321996 732.769404,777.311963 C705.938323,756.30193 626.611648,706.541326 585.781742,681.108129 C544.951836,655.674931 520.453892,625.818569 511.121342,591.539042 C502.955361,557.259515 487.789967,534.037899 463.292023,519.662614 C438.79408,505.287328 413.129567,489.806251 388.631624,489.806251 C364.13368,490.912043 322.137205,495.335207 308.13838,495.335207 C291.806418,494.229416 288.306711,488.70046 304.638674,487.594669 Z"></path>
                </g>
            </g>
        </g>
    </g>
</svg>