<?xml version="1.0" encoding="UTF-8"?>
<svg width="17px" height="17px" viewBox="0 0 17 17" version="1.1" xmlns="http://www.w3.org/2000/svg" xmlns:xlink="http://www.w3.org/1999/xlink">
    <!-- Generator: Sketch 55.2 (78181) - https://sketchapp.com -->
    <title>cancel</title>
    <desc>Created with Sketch.</desc>
    <g id="Page-1" stroke="none" stroke-width="1" fill="none" fill-rule="evenodd">
        <g id="Fotocloud_Upload_Photo-Price-block-Mob" transform="translate(-152.000000, -80.000000)" fill="#27292D" fill-rule="nonzero">
            <g id="Pop-Up" transform="translate(20.000000, 50.000000)">
                <g id="cancel" transform="translate(132.000000, 30.000000)">
                    <path d="M7.68702293,8.50260804 L0.162103988,16.0800979 C-0.0469510528,16.2906134 -0.0469510528,16.6316647 0.162103988,16.8421802 C0.266498691,16.9475717 0.403566546,17 0.540368764,17 C0.677436619,17 0.814238837,16.9475717 0.91863354,16.8421802 L8.50013282,9.20771476 L16.0816321,16.8421802 C16.1862924,16.9475717 16.3230947,17 16.4598969,17 C16.5966991,17 16.7337669,16.9475717 16.8381616,16.8421802 C17.0472167,16.6316647 17.0472167,16.2906134 16.8381616,16.0800979 L9.31350834,8.50260804 L16.8432087,0.919768384 C17.0522638,0.709252834 17.0522638,0.368201594 16.8432087,0.157686044 C16.6341537,-0.0525620147 16.2954686,-0.0525620147 16.0866792,0.157686044 L8.50039845,7.79750132 L0.913320833,0.157953535 C0.704265792,-0.0522945235 0.365846322,-0.0522945235 0.156791281,0.157953535 C-0.0522637603,0.368469085 -0.0522637603,0.709520325 0.156791281,0.920035875 L7.68702293,8.50260804 Z" id="Path"></path>
                </g>
            </g>
        </g>
    </g>
</svg>