<?xml version="1.0" encoding="UTF-8"?>
<svg width="375px" height="156px" viewBox="0 0 375 156" version="1.1" xmlns="http://www.w3.org/2000/svg" xmlns:xlink="http://www.w3.org/1999/xlink">
    <!-- Generator: Sketch 55.2 (78181) - https://sketchapp.com -->
    <title>Path</title>
    <desc>Created with Sketch.</desc>
    <g id="Page-1" stroke="none" stroke-width="1" fill="none" fill-rule="evenodd">
        <g id="UI-kit" transform="translate(-943.000000, -2620.000000)" fill="#FFFAFA" stroke="#FFE5E5">
            <g id="Pop-ups" transform="translate(0.000000, 2440.000000)">
                <g id="Error" transform="translate(930.000000, 166.000000)">
                    <g id="Path">
                        <g transform="translate(14.000000, 15.000000)">
                            <path d="M0.91449919,25.8390833 C2.31839281,25.2687612 9.13730468,24.8885464 10.0398077,23.8429559 C10.9423108,22.7973654 12.847595,18.6150032 17.4603883,18.3298422 C22.0731816,18.0446811 23.3767971,19.8507012 23.3767971,19.8507012 C23.3767971,19.8507012 23.9784658,12.1513527 24.7806907,8.72942003 C25.6831938,5.21243369 26.9868093,4.73716527 26.9868093,5.97286317 C26.9868093,7.20856107 27.0870874,7.77888318 27.0870874,7.77888318 C27.0870874,7.77888318 28.2904248,8.82447372 28.3907029,10.3453327 C28.3907029,11.9612453 28.490981,14.1474801 28.490981,14.1474801 C28.490981,14.1474801 29.9951527,15.7633927 29.393484,17.474359 C28.7918154,19.1853254 28.8920935,22.5122043 28.8920935,22.5122043 C28.8920935,22.5122043 31.5996026,21.4666138 33.3043306,19.5655401 C35.0090585,17.6644664 47.1427105,13.2919969 51.5549476,8.82447372 C55.9671847,4.35695053 58.7749719,0.744910509 59.0758063,0.0795347158 C59.3766406,-0.680894762 59.2763625,4.26189685 59.2763625,4.26189685 C59.2763625,4.26189685 60.6802561,5.59264843 59.5771969,7.11350739 C58.4741376,8.63436635 57.6719127,10.1552253 57.6719127,10.1552253 C57.6719127,10.1552253 58.5744157,12.056299 56.3682972,13.7672653 C54.0619005,15.4782317 52.758285,17.3793053 52.758285,17.3793053 C52.758285,17.3793053 53.0591194,20.2309159 51.4546695,21.1814527 C49.8502197,22.1319896 48.5466041,23.2726338 48.5466041,23.2726338 C48.5466041,23.2726338 48.7471604,26.0291907 47.4435449,26.5044591 C46.1399294,27.0747812 45.0368701,28.1203717 45.0368701,28.1203717 C45.0368701,28.1203717 45.3377044,30.1164991 44.0340889,30.8769286 C42.7304734,31.6373581 40.1232424,33.8235928 40.1232424,33.8235928 C40.1232424,33.8235928 42.8307516,36.9603644 44.0340889,42.0932634 C45.1371482,47.2261624 49.6496634,52.168954 54.0619005,54.7354035 C58.4741376,57.2067993 55.8669066,57.0166919 52.4574507,55.4007793 C48.9477166,53.7848666 45.0368701,52.2640077 45.0368701,52.2640077 C45.0368701,52.2640077 47.4435449,56.2562624 47.7443792,57.9672287 C48.0452136,59.6781951 47.8446573,61.2941077 46.3404856,58.4424972 C44.8363139,55.5908866 40.0229643,52.5491687 37.7165677,50.7431487 C35.410171,48.9371287 28.5912591,44.6597129 25.0815251,42.4734781 C21.571791,40.2872434 19.4659506,37.7207939 18.6637257,34.7741297 C17.9617789,31.8274654 16.6581634,29.8313381 14.5523229,28.5956402 C12.4464825,27.3599422 10.2403639,26.0291907 8.13452352,26.0291907 C6.02868309,26.1242443 2.41867093,26.5044591 1.21533354,26.5044591 C-0.188560083,26.4094054 -0.48939443,25.934137 0.91449919,25.8390833 Z"></path>
                            <path d="M324.746841,127.101918 C325.893354,126.636155 331.462132,126.325646 332.199176,125.471747 C332.93622,124.617848 334.492203,121.202253 338.259317,120.969371 C342.026432,120.73649 343.091051,122.211406 343.091051,122.211406 C343.091051,122.211406 343.582414,115.923605 344.237564,113.129026 C344.974608,110.256821 346.039228,109.868685 346.039228,110.877838 C346.039228,111.886992 346.121121,112.352755 346.121121,112.352755 C346.121121,112.352755 347.103847,113.206654 347.185741,114.448688 C347.185741,115.76835 347.267634,117.553775 347.267634,117.553775 C347.267634,117.553775 348.496041,118.873437 348.004679,120.270727 C347.513316,121.668016 347.59521,124.384967 347.59521,124.384967 C347.59521,124.384967 349.806342,123.531068 351.198537,121.978524 C352.590731,120.425981 362.49988,116.855131 366.103207,113.206654 C369.706534,109.558176 371.99956,106.608344 372.245242,106.064953 C372.490923,105.443936 372.409029,109.480549 372.409029,109.480549 C372.409029,109.480549 373.555543,110.56733 372.654711,111.809364 C371.753879,113.051399 371.098729,114.293434 371.098729,114.293434 C371.098729,114.293434 371.835773,115.845978 370.034109,117.243267 C368.150552,118.640556 367.085933,120.193099 367.085933,120.193099 C367.085933,120.193099 367.331614,122.521915 366.021313,123.298186 C364.711013,124.074458 363.646393,125.005984 363.646393,125.005984 C363.646393,125.005984 363.810181,127.257172 362.745562,127.645308 C361.680942,128.111071 360.780111,128.96497 360.780111,128.96497 C360.780111,128.96497 361.025792,130.595141 359.961173,131.216158 C358.896553,131.837176 356.767315,133.622601 356.767315,133.622601 C356.767315,133.622601 358.978447,136.184298 359.961173,140.376165 C360.862004,144.568033 364.547225,148.604646 368.150552,150.700579 C371.753879,152.718886 369.62464,152.563632 366.840251,151.24397 C363.973969,149.924308 360.780111,148.682273 360.780111,148.682273 C360.780111,148.682273 362.745562,151.942614 362.991243,153.339903 C363.236924,154.737193 363.073137,156.056855 361.84473,153.728039 C360.616323,151.399224 356.685421,148.915154 354.801864,147.440238 C352.918306,145.965322 347.349528,142.472099 344.483245,140.686674 C341.616963,138.901249 339.897193,136.805315 339.242043,134.398873 C338.668786,131.99243 337.604167,130.362259 335.884397,129.353106 C334.164627,128.343953 332.362964,127.257172 330.643194,127.257172 C328.923425,127.3348 325.975248,127.645308 324.992522,127.645308 C323.846009,127.567681 323.600328,127.179545 324.746841,127.101918 Z" id="Path-Copy" transform="translate(348.500000, 130.500000) scale(-1, 1) translate(-348.500000, -130.500000) "></path>
                        </g>
                    </g>
                </g>
            </g>
        </g>
    </g>
</svg>