<?xml version="1.0" encoding="UTF-8"?>
<svg width="442px" height="350px" viewBox="0 0 442 350" version="1.1" xmlns="http://www.w3.org/2000/svg" xmlns:xlink="http://www.w3.org/1999/xlink">
    <!-- Generator: Sketch 55.2 (78181) - https://sketchapp.com -->
    <title>3574 [преобразованный] copy</title>
    <desc>Created with Sketch.</desc>
    <g id="Page-1" stroke="none" stroke-width="1" fill="none" fill-rule="evenodd" opacity="0.703404018">
        <g id="Fotocloud_Upload_Photo-Copy-5" transform="translate(-958.000000, 0.000000)" fill="#FFFFFF" fill-rule="nonzero">
            <g id="1" transform="translate(0.000000, -596.000000)">
                <g id="3574-[преобразованный]-copy" transform="translate(1100.000000, 473.000000) scale(-1, 1) rotate(-180.000000) translate(-1100.000000, -473.000000) translate(668.000000, 0.000000)">
                    <g id="Group" opacity="0.704520089" transform="translate(0.000000, 0.000000)">
                        <path d="M383.182873,128.577194 C383.182873,128.577194 383.182873,128.577194 383.182873,128.577194 C383.102877,128.577194 383.102877,128.577194 383.102877,128.577194 C383.102877,128.657251 383.102877,128.657251 383.182873,128.737307 C383.102877,128.657251 383.182873,128.657251 383.182873,128.577194 Z" id="Path"></path>
                        <path d="M543.17336,128.577194 C543.17336,128.577194 543.17336,128.577194 543.17336,128.577194 C543.093365,128.577194 543.093365,128.577194 543.093365,128.577194 C543.093365,128.657251 543.093365,128.657251 543.17336,128.737307 C543.093365,128.657251 543.17336,128.657251 543.17336,128.577194 Z" id="Path"></path>
                        <path d="M703.163848,128.577194 C703.163848,128.577194 703.163848,128.577194 703.163848,128.577194 C703.083853,128.577194 703.083853,128.577194 703.083853,128.577194 C703.083853,128.657251 703.083853,128.657251 703.163848,128.737307 C703.083853,128.657251 703.163848,128.657251 703.163848,128.577194 Z" id="Path"></path>
                        <path d="M334.065793,278.042715 C334.705755,294.134076 344.865151,305.582158 353.904613,317.590636 C365.423929,332.801374 372.943481,350.013526 378.463153,368.026243 C378.463153,355.937708 378.463153,343.769117 378.463153,331.680583 C374.383396,320.232501 367.743791,310.225436 361.664152,299.818088 C355.824499,289.811024 350.944789,279.32362 348.544932,267.795481 C346.785037,259.229433 346.22507,250.503273 346.865032,241.937225 C338.785512,252.104403 333.585821,264.513164 334.065793,278.042715 Z" id="Path"></path>
                        <path d="M378.943125,303.660801 C378.623144,288.28995 379.183111,272.839042 378.223168,257.548246 C372.143529,243.698469 364.783967,229.448408 361.584157,214.477839 C354.544575,231.770047 352.78468,251.383894 357.504399,269.716837 C361.504162,285.407915 370.863605,298.537184 378.543149,312.467019 C378.623144,309.424871 378.783134,306.542836 378.943125,303.660801 Z" id="Path"></path>
                        <path d="M326.466245,283.806785 C319.666649,294.854584 318.546716,309.024588 320.946573,321.753575 C323.826402,337.04437 331.345955,350.814091 339.105493,363.863304 C344.785156,373.550143 350.704804,383.076868 356.384466,392.763707 C364.783967,407.17388 371.983539,422.224506 378.463153,437.595358 C378.463153,425.426767 378.463153,413.258176 378.463153,401.089585 C375.583325,387.800203 372.383515,374.510821 367.903781,361.701778 C363.744028,349.6933 358.304352,338.165161 351.10478,327.83787 C344.225189,317.750749 335.425712,308.944532 330.386012,297.656562 C328.466126,293.093341 327.186202,288.450063 326.466245,283.806785 Z" id="Path"></path>
                        <path d="M388.062583,257.548246 C387.10264,272.839042 387.662606,288.28995 387.342625,303.660801 C387.502616,306.542836 387.662606,309.504927 387.822597,312.386962 C395.50214,298.457128 404.781589,285.407915 408.861346,269.636781 C413.50107,251.303838 411.82117,231.770047 404.781589,214.397783 C401.501784,229.448408 394.142221,243.698469 388.062583,257.548246 Z" id="Path"></path>
                        <path d="M433.659872,301.899558 C427.660228,312.787245 418.860751,321.593462 412.301141,332.000809 C399.261917,352.815504 392.942292,377.072629 387.822597,401.089585 C387.822597,413.178119 387.822597,425.34671 387.822597,437.435245 C390.862416,430.150101 394.062226,422.945015 397.502021,415.819985 C407.181446,396.046024 419.260728,377.713081 430.140081,358.65963 C442.459348,337.124426 454.53863,306.542836 439.73951,283.566615 C438.859562,289.971137 436.859681,296.135489 433.659872,301.899558 Z" id="Path"></path>
                        <path d="M387.742602,331.680583 C387.742602,343.769117 387.742602,355.937708 387.742602,368.026243 C393.342269,350.013526 400.861822,332.801374 412.301141,317.590636 C421.340604,305.582158 431.5,294.134076 432.139962,278.042715 C432.699929,264.513164 427.420243,252.104403 419.260728,241.937225 C419.820694,250.583329 419.340723,259.30949 417.580828,267.795481 C415.260965,279.32362 410.30126,289.811024 404.461608,299.818088 C398.461964,310.225436 391.822359,320.232501 387.742602,331.680583 Z" id="Path"></path>
                        <path d="M398.141983,201.188457 C398.461964,184.296532 391.182397,168.92568 383.182873,154.595563 C375.183348,168.92568 367.903781,184.296532 368.223762,201.188457 C368.543743,217.760157 376.383277,233.531291 383.182873,248.581916 C389.982468,233.531291 397.822002,217.760157 398.141983,201.188457 Z" id="Path"></path>
                        <path d="M593.650359,301.899558 C587.650716,312.787245 578.851239,321.593462 572.291629,332.000809 C559.252404,352.815504 552.93278,377.072629 547.813085,401.089585 C547.813085,413.178119 547.813085,425.34671 547.813085,437.435245 C550.852904,430.150101 554.052714,422.945015 557.492509,415.819985 C567.171934,396.046024 579.251215,377.713081 590.130569,358.65963 C602.449836,337.124426 614.529118,306.542836 599.729998,283.566615 C598.85005,289.971137 596.850169,296.135489 593.650359,301.899558 Z" id="Path"></path>
                        <path d="M538.933613,303.660801 C538.613632,288.28995 539.173598,272.839042 538.213655,257.548246 C532.134017,243.698469 524.774454,229.448408 521.574645,214.477839 C514.535063,231.770047 512.775168,251.383894 517.494887,269.716837 C521.494649,285.407915 530.854093,298.537184 538.533636,312.467019 C538.613632,309.424871 538.773622,306.542836 538.933613,303.660801 Z" id="Path"></path>
                        <path d="M547.733089,331.680583 C547.733089,343.769117 547.733089,355.937708 547.733089,368.026243 C553.332756,350.013526 560.852309,332.801374 572.291629,317.590636 C581.331092,305.582158 591.490488,294.134076 592.13045,278.042715 C592.690416,264.513164 587.41073,252.104403 579.251215,241.937225 C579.811182,250.583329 579.331211,259.30949 577.571315,267.795481 C575.251453,279.32362 570.291748,289.811024 564.452095,299.818088 C558.452452,310.225436 551.812847,320.232501 547.733089,331.680583 Z" id="Path"></path>
                        <path d="M494.056281,278.042715 C494.696243,294.134076 504.855639,305.582158 513.895101,317.590636 C525.414416,332.801374 532.933969,350.013526 538.453641,368.026243 C538.453641,355.937708 538.453641,343.769117 538.453641,331.680583 C534.373884,320.232501 527.734278,310.225436 521.65464,299.818088 C515.814987,289.811024 510.935277,279.32362 508.53542,267.795481 C506.775524,259.229433 506.215558,250.503273 506.85552,241.937225 C498.776,252.104403 493.576309,264.513164 494.056281,278.042715 Z" id="Path"></path>
                        <path d="M548.05307,257.548246 C547.093127,272.839042 547.653094,288.28995 547.333113,303.660801 C547.493104,306.542836 547.653094,309.504927 547.813085,312.386962 C555.492628,298.457128 564.772076,285.407915 568.851834,269.636781 C573.491558,251.303838 571.811658,231.770047 564.772076,214.397783 C561.492271,229.448408 554.132709,243.698469 548.05307,257.548246 Z" id="Path"></path>
                        <path d="M486.456733,283.806785 C479.657137,294.854584 478.537203,309.024588 480.937061,321.753575 C483.816889,337.04437 491.336442,350.814091 499.095981,363.863304 C504.775643,373.550143 510.695291,383.076868 516.374954,392.763707 C524.774454,407.17388 531.974026,422.224506 538.453641,437.595358 C538.453641,425.426767 538.453641,413.258176 538.453641,401.089585 C535.573812,387.800203 532.374003,374.510821 527.894269,361.701778 C523.734516,349.6933 518.29484,338.165161 511.095268,327.83787 C504.215677,317.750749 495.4162,308.944532 490.376499,297.656562 C488.456614,293.093341 487.17669,288.450063 486.456733,283.806785 Z" id="Path"></path>
                        <path d="M558.132471,201.188457 C558.452452,184.296532 551.172885,168.92568 543.17336,154.595563 C535.173836,168.92568 527.894269,184.296532 528.21425,201.188457 C528.534231,217.760157 536.373765,233.531291 543.17336,248.581916 C549.972956,233.531291 557.81249,217.760157 558.132471,201.188457 Z" id="Path"></path>
                        <path d="M654.046768,278.042715 C654.68673,294.134076 664.846126,305.582158 673.885589,317.590636 C685.404904,332.801374 692.924457,350.013526 698.444129,368.026243 C698.444129,355.937708 698.444129,343.769117 698.444129,331.680583 C694.364371,320.232501 687.724766,310.225436 681.645128,299.818088 C675.805475,289.811024 670.925765,279.32362 668.525908,267.795481 C666.766012,259.229433 666.206046,250.503273 666.846008,241.937225 C658.766488,252.104403 653.566797,264.513164 654.046768,278.042715 Z" id="Path"></path>
                        <path d="M646.44722,283.806785 C639.647625,294.854584 638.527691,309.024588 640.927548,321.753575 C643.807377,337.04437 651.32693,350.814091 659.086469,363.863304 C664.766131,373.550143 670.685779,383.076868 676.365442,392.763707 C684.764942,407.17388 691.964514,422.224506 698.444129,437.595358 C698.444129,425.426767 698.444129,413.258176 698.444129,401.089585 C695.5643,387.800203 692.36449,374.510821 687.884757,361.701778 C683.725004,349.6933 678.285327,338.165161 671.085755,327.83787 C664.206164,317.750749 655.406688,308.944532 650.366987,297.656562 C648.447101,293.093341 647.167178,288.450063 646.44722,283.806785 Z" id="Path"></path>
                        <path d="M698.9241,303.660801 C698.604119,288.28995 699.164086,272.839042 698.204143,257.548246 C692.124505,243.698469 684.764942,229.448408 681.565132,214.477839 C674.525551,231.770047 672.765656,251.383894 677.485375,269.716837 C681.485137,285.407915 690.844581,298.537184 698.524124,312.467019 C698.604119,309.424871 698.76411,306.542836 698.9241,303.660801 Z" id="Path"></path>
                        <path d="M707.723577,331.680583 C707.723577,343.769117 707.723577,355.937708 707.723577,368.026243 C713.323244,350.013526 720.842797,332.801374 732.282117,317.590636 C741.32158,305.582158 751.480976,294.134076 752.120937,278.042715 C752.680904,264.513164 747.401218,252.104403 739.241703,241.937225 C739.80167,250.583329 739.321698,259.30949 737.561803,267.795481 C735.241941,279.32362 730.282236,289.811024 724.442583,299.818088 C718.44294,310.225436 711.803335,320.232501 707.723577,331.680583 Z" id="Path"></path>
                        <path d="M718.122959,201.188457 C718.44294,184.296532 711.163373,168.92568 703.163848,154.595563 C695.164324,168.92568 687.884757,184.296532 688.204738,201.188457 C688.524719,217.760157 696.364252,233.531291 703.163848,248.581916 C709.963444,233.531291 717.802978,217.760157 718.122959,201.188457 Z" id="Path"></path>
                        <path d="M708.043558,257.548246 C707.083615,272.839042 707.643582,288.28995 707.323601,303.660801 C707.483591,306.542836 707.643582,309.504927 707.803572,312.386962 C715.483116,298.457128 724.762564,285.407915 728.842322,269.636781 C733.482046,251.303838 731.802146,231.770047 724.762564,214.397783 C721.482759,229.448408 714.123197,243.698469 708.043558,257.548246 Z" id="Path"></path>
                        <path d="M753.640847,301.899558 C747.641204,312.787245 738.841727,321.593462 732.282117,332.000809 C719.242892,352.815504 712.923268,377.072629 707.803572,401.089585 C707.803572,413.178119 707.803572,425.34671 707.803572,437.435245 C710.843392,430.150101 714.043201,422.945015 717.482997,415.819985 C727.162421,396.046024 739.241703,377.713081 750.121056,358.65963 C762.440324,337.124426 774.519606,306.542836 759.720486,283.566615 C758.840538,289.971137 756.840657,296.135489 753.640847,301.899558 Z" id="Path"></path>
                        <path d="M726.602455,485.869439 C727.482402,479.464917 729.562279,473.300565 732.682093,467.536496 C738.681737,456.648809 747.481213,447.842592 754.040823,437.435245 C767.080048,416.62055 773.399672,392.363424 778.519368,368.346469 C778.519368,356.257934 778.519368,344.089344 778.519368,332.000809 C775.479549,339.285952 772.279739,346.491039 768.839943,353.616069 C759.160519,373.390029 747.081237,391.722972 736.201884,410.776424 C723.882616,432.311627 711.88333,462.893218 726.602455,485.869439 Z" id="Path"></path>
                        <path d="M623.2486,320.71284 C623.2486,320.71284 623.2486,320.71284 623.2486,320.71284 C623.328595,320.632783 623.2486,320.632783 623.2486,320.552727 C623.2486,320.632783 623.168604,320.632783 623.2486,320.71284 C623.168604,320.71284 623.168604,320.71284 623.2486,320.71284 Z" id="Path"></path>
                        <path d="M627.808328,368.426525 C630.688157,381.715907 633.887967,395.00529 638.367701,407.814333 C642.527453,419.82281 647.96713,431.350949 655.166702,441.67824 C662.046293,451.765362 670.84577,460.571579 675.88547,471.859548 C677.885351,476.422769 679.165275,481.066048 679.885232,485.709326 C686.684828,474.661526 687.804761,460.491522 685.404904,447.762536 C682.525075,432.47174 675.005522,418.702019 667.245984,405.652807 C661.566321,395.965968 655.646673,386.439242 649.967011,376.752403 C641.56751,362.34223 634.367938,347.291604 627.888324,331.920753 C627.808328,344.089344 627.808328,356.257934 627.808328,368.426525 Z" id="Path"></path>
                        <path d="M566.611967,485.869439 C567.491915,479.464917 569.571791,473.300565 572.691605,467.536496 C578.691249,456.648809 587.490726,447.842592 594.050336,437.435245 C607.08956,416.62055 613.409185,392.363424 618.52888,368.346469 C618.52888,356.257934 618.52888,344.089344 618.52888,332.000809 C615.489061,339.285952 612.289251,346.491039 608.849456,353.616069 C599.170031,373.390029 587.090749,391.722972 576.211396,410.776424 C563.892129,432.311627 551.892842,462.893218 566.611967,485.869439 Z" id="Path"></path>
                        <path d="M463.258112,320.71284 C463.258112,320.71284 463.258112,320.71284 463.258112,320.71284 C463.338107,320.632783 463.258112,320.632783 463.258112,320.552727 C463.258112,320.632783 463.178117,320.632783 463.258112,320.71284 C463.178117,320.71284 463.178117,320.71284 463.258112,320.71284 Z" id="Path"></path>
                        <path d="M467.817841,368.426525 C470.69767,381.715907 473.897479,395.00529 478.377213,407.814333 C482.536966,419.82281 487.976642,431.350949 495.176214,441.67824 C502.055805,451.765362 510.855282,460.571579 515.894982,471.859548 C517.894863,476.422769 519.174787,481.066048 519.894744,485.709326 C526.69434,474.661526 527.814274,460.491522 525.414416,447.762536 C522.534588,432.47174 515.015035,418.702019 507.255496,405.652807 C501.575834,395.965968 495.656186,386.439242 489.976523,376.752403 C481.577023,362.34223 474.377451,347.291604 467.897836,331.920753 C467.817841,344.089344 467.817841,356.257934 467.817841,368.426525 Z" id="Path"></path>
                        <path d="M406.621479,485.869439 C407.501427,479.464917 409.581303,473.300565 412.701118,467.536496 C418.700761,456.648809 427.500238,447.842592 434.059848,437.435245 C447.099073,416.62055 453.418697,392.363424 458.538392,368.346469 C458.538392,356.257934 458.538392,344.089344 458.538392,332.000809 C455.498573,339.285952 452.298763,346.491039 448.858968,353.616069 C439.179543,373.390029 427.100262,391.722972 416.220908,410.776424 C403.901641,432.311627 391.902354,462.893218 406.621479,485.869439 Z" id="Path"></path>
                        <path d="M307.827353,368.426525 C310.707182,381.715907 313.906991,395.00529 318.386725,407.814333 C322.546478,419.82281 327.986154,431.350949 335.185726,441.67824 C342.065317,451.765362 350.864794,460.571579 355.904495,471.859548 C357.904376,476.422769 359.1843,481.066048 359.904257,485.709326 C366.703852,474.661526 367.823786,460.491522 365.423929,447.762536 C362.5441,432.47174 355.024547,418.702019 347.265008,405.652807 C341.585346,395.965968 335.665698,386.439242 329.986036,376.752403 C321.586535,362.34223 314.386963,347.291604 307.907348,331.920753 C307.827353,344.089344 307.827353,356.257934 307.827353,368.426525 Z" id="Path"></path>
                        <path d="M303.267624,320.71284 C303.267624,320.71284 303.267624,320.71284 303.267624,320.71284 C303.347619,320.632783 303.267624,320.632783 303.267624,320.552727 C303.267624,320.632783 303.187629,320.632783 303.267624,320.71284 C303.187629,320.71284 303.187629,320.71284 303.267624,320.71284 Z" id="Path"></path>
                        <path d="M246.630991,485.869439 C247.510939,479.464917 249.590815,473.300565 252.71063,467.536496 C258.710273,456.648809 267.50975,447.842592 274.06936,437.435245 C287.108585,416.62055 293.428209,392.363424 298.547905,368.346469 C298.547905,356.257934 298.547905,344.089344 298.547905,332.000809 C295.508085,339.285952 292.308276,346.491039 288.86848,353.616069 C279.189056,373.390029 267.109774,391.722972 256.230421,410.776424 C243.911153,432.311627 231.911867,462.893218 246.630991,485.869439 Z" id="Path"></path>
                        <path d="M732.682093,147.390476 C738.681737,136.50279 747.481213,127.696573 754.040823,117.289225 C767.080048,96.4745302 773.399672,72.217405 778.519368,48.2004493 C778.519368,36.1119149 778.519368,23.943324 778.519368,11.8547896 C775.479549,19.1399329 772.279739,26.3450196 768.839943,33.4700498 C759.160519,53.24401 747.081237,71.5769528 736.201884,90.6304043 C723.882616,112.165608 711.803335,142.747198 726.602455,165.723419 C727.482402,159.318898 729.482283,153.154546 732.682093,147.390476 Z" id="Path"></path>
                        <path d="M597.570126,179.653253 C592.930402,197.986196 594.610302,217.519987 601.649884,234.892252 C604.849693,219.921683 612.209256,205.671622 618.288894,191.821844 C619.248837,176.531049 618.688871,161.080141 619.008852,145.709289 C618.848861,142.827255 618.688871,139.865164 618.52888,136.983129 C610.849337,150.832907 601.569888,163.962176 597.570126,179.653253 Z" id="Path"></path>
                        <path d="M608.209494,248.101577 C607.889513,264.993503 615.16908,280.364354 623.168604,294.694471 C631.168129,280.364354 638.447696,264.993503 638.127715,248.101577 C637.807734,231.529878 629.9682,215.758744 623.168604,200.708118 C616.369009,215.758744 608.529475,231.529878 608.209494,248.101577 Z" id="Path"></path>
                        <path d="M572.691605,147.390476 C578.691249,136.50279 587.490726,127.696573 594.050336,117.289225 C607.08956,96.4745302 613.409185,72.217405 618.52888,48.2004493 C618.52888,36.1119149 618.52888,23.943324 618.52888,11.8547896 C615.489061,19.1399329 612.289251,26.3450196 608.849456,33.4700498 C599.170031,53.24401 587.090749,71.5769528 576.211396,90.6304043 C563.892129,112.165608 551.812847,142.747198 566.611967,165.723419 C567.491915,159.318898 569.491796,153.154546 572.691605,147.390476 Z" id="Path"></path>
                        <path d="M623.2486,0.486763924 C623.2486,0.406707405 623.2486,0.406707405 623.168604,0.326650886 C623.168604,0.406707405 623.168604,0.406707405 623.088609,0.486763924 C623.168604,0.486763924 623.168604,0.486763924 623.2486,0.486763924 C623.2486,0.486763924 623.2486,0.486763924 623.2486,0.486763924 Z" id="Path"></path>
                        <path d="M644.76732,234.892252 C651.806902,217.600043 653.566797,197.986196 648.847078,179.653253 C644.847315,163.962176 635.487872,150.832907 627.808328,136.903072 C627.648338,139.785107 627.488348,142.747198 627.328357,145.629233 C627.648338,161.000085 627.088371,176.450993 628.048314,191.741788 C634.287943,205.591566 641.647506,219.841626 644.76732,234.892252 Z" id="Path"></path>
                        <path d="M601.809874,149.471946 C607.809518,139.064598 614.529118,129.057533 618.608875,117.609451 C618.608875,105.520917 618.608875,93.352326 618.608875,81.2637916 C613.009208,99.2765084 605.489655,116.48866 594.050336,131.699399 C585.010873,143.707876 574.851477,155.155959 574.211515,171.247319 C573.651548,184.776871 578.931234,197.185631 587.090749,207.352809 C586.530783,198.706705 587.010754,189.980544 588.770649,181.494553 C591.090512,169.966415 595.970221,159.479011 601.809874,149.471946 Z" id="Path"></path>
                        <path d="M657.72655,181.494553 C659.486445,190.060601 660.046412,198.786762 659.40645,207.352809 C667.565965,197.185631 672.765656,184.696814 672.285684,171.247319 C671.645722,155.155959 661.486326,143.707876 652.446864,131.699399 C640.927548,116.48866 633.407996,99.2765084 627.888324,81.2637916 C627.888324,93.352326 627.888324,105.520917 627.888324,117.609451 C631.968081,129.057533 638.607686,139.064598 644.687325,149.471946 C650.446983,159.479011 655.326692,169.966415 657.72655,181.494553 Z" id="Path"></path>
                        <path d="M655.166702,121.452164 C662.046293,131.539286 670.84577,140.345503 675.88547,151.633472 C677.885351,156.196693 679.165275,160.839971 679.885232,165.48325 C686.684828,154.43545 687.804761,140.265446 685.404904,127.53646 C682.525075,112.245664 675.005522,98.4759432 667.245984,85.4267306 C661.566321,75.7398918 655.646673,66.213166 649.967011,56.5263272 C641.56751,42.1161538 634.367938,27.0655282 627.888324,11.6946766 C627.888324,23.8632675 627.888324,36.0318584 627.888324,48.2004493 C630.768153,61.4898314 633.967962,74.7792136 638.447696,87.5882566 C642.527453,99.5166779 647.96713,111.044817 655.166702,121.452164 Z" id="Path"></path>
                        <path d="M484.776832,234.892252 C491.816414,217.600043 493.576309,197.986196 488.85659,179.653253 C484.856828,163.962176 475.497384,150.832907 467.817841,136.903072 C467.65785,139.785107 467.49786,142.747198 467.337869,145.629233 C467.65785,161.000085 467.097884,176.450993 468.057826,191.741788 C474.297455,205.591566 481.657018,219.841626 484.776832,234.892252 Z" id="Path"></path>
                        <path d="M448.219006,248.101577 C447.899025,264.993503 455.178592,280.364354 463.178117,294.694471 C471.177641,280.364354 478.457208,264.993503 478.137227,248.101577 C477.817246,231.529878 469.977712,215.758744 463.178117,200.708118 C456.378521,215.758744 448.538987,231.529878 448.219006,248.101577 Z" id="Path"></path>
                        <path d="M441.819386,149.471946 C447.81903,139.064598 454.53863,129.057533 458.618388,117.609451 C458.618388,105.520917 458.618388,93.352326 458.618388,81.2637916 C453.018721,99.2765084 445.499168,116.48866 434.059848,131.699399 C425.020385,143.707876 414.860989,155.155959 414.221027,171.247319 C413.661061,184.776871 418.940747,197.185631 427.100262,207.352809 C426.540295,198.706705 427.020266,189.980544 428.780162,181.494553 C431.100024,169.966415 435.979734,159.479011 441.819386,149.471946 Z" id="Path"></path>
                        <path d="M495.176214,121.452164 C502.055805,131.539286 510.855282,140.345503 515.894982,151.633472 C517.894863,156.196693 519.174787,160.839971 519.894744,165.48325 C526.69434,154.43545 527.814274,140.265446 525.414416,127.53646 C522.534588,112.245664 515.015035,98.4759432 507.255496,85.4267306 C501.575834,75.7398918 495.656186,66.213166 489.976523,56.5263272 C481.577023,42.1161538 474.377451,27.0655282 467.897836,11.6946766 C467.897836,23.8632675 467.897836,36.0318584 467.897836,48.2004493 C470.777665,61.4898314 473.977475,74.7792136 478.457208,87.5882566 C482.536966,99.5166779 487.976642,111.044817 495.176214,121.452164 Z" id="Path"></path>
                        <path d="M497.736062,181.494553 C499.495957,190.060601 500.055924,198.786762 499.415962,207.352809 C507.575477,197.185631 512.775168,184.696814 512.295196,171.247319 C511.655234,155.155959 501.495838,143.707876 492.456376,131.699399 C480.937061,116.48866 473.417508,99.2765084 467.897836,81.2637916 C467.897836,93.352326 467.897836,105.520917 467.897836,117.609451 C471.977593,129.057533 478.617199,139.064598 484.696837,149.471946 C490.456495,159.479011 495.336205,169.966415 497.736062,181.494553 Z" id="Path"></path>
                        <path d="M463.258112,0.486763924 C463.258112,0.406707405 463.258112,0.406707405 463.178117,0.326650886 C463.178117,0.406707405 463.178117,0.406707405 463.098121,0.486763924 C463.178117,0.486763924 463.178117,0.486763924 463.258112,0.486763924 C463.258112,0.486763924 463.258112,0.486763924 463.258112,0.486763924 Z" id="Path"></path>
                        <path d="M412.701118,147.390476 C418.700761,136.50279 427.500238,127.696573 434.059848,117.289225 C447.099073,96.4745302 453.418697,72.217405 458.538392,48.2004493 C458.538392,36.1119149 458.538392,23.943324 458.538392,11.8547896 C455.498573,19.1399329 452.298763,26.3450196 448.858968,33.4700498 C439.179543,53.24401 427.100262,71.5769528 416.220908,90.6304043 C403.901641,112.165608 391.822359,142.747198 406.621479,165.723419 C407.501427,159.318898 409.501308,153.154546 412.701118,147.390476 Z" id="Path"></path>
                        <path d="M437.579639,179.653253 C432.939914,197.986196 434.619815,217.519987 441.659396,234.892252 C444.859206,219.921683 452.218768,205.671622 458.298407,191.821844 C459.25835,176.531049 458.698383,161.080141 459.018364,145.709289 C458.858373,142.827255 458.698383,139.865164 458.538392,136.983129 C450.858849,150.832907 441.579401,163.962176 437.579639,179.653253 Z" id="Path"></path>
                        <path d="M303.267624,0.486763924 C303.267624,0.406707405 303.267624,0.406707405 303.187629,0.326650886 C303.187629,0.406707405 303.187629,0.406707405 303.107634,0.486763924 C303.187629,0.486763924 303.187629,0.486763924 303.267624,0.486763924 C303.267624,0.486763924 303.267624,0.486763924 303.267624,0.486763924 Z" id="Path"></path>
                    </g>
                </g>
            </g>
        </g>
    </g>
</svg>