<?xml version="1.0" encoding="UTF-8"?>
<svg width="20px" height="20px" viewBox="0 0 20 20" version="1.1" xmlns="http://www.w3.org/2000/svg" xmlns:xlink="http://www.w3.org/1999/xlink">
    <!-- Generator: Sketch 55.2 (78181) - https://sketchapp.com -->
    <title>tap</title>
    <desc>Created with Sketch.</desc>
    <g id="Page-1" stroke="none" stroke-width="1" fill="none" fill-rule="evenodd">
        <g id="Fotocloud_Upload_Photo-Price-block-Mob" transform="translate(-200.000000, -379.000000)" fill="#FFFFFF" fill-rule="nonzero">
            <g id="Pop-Up" transform="translate(20.000000, 50.000000)">
                <g id="1" transform="translate(25.000000, 195.000000)">
                    <g id="Group-6" transform="translate(30.000000, 115.000000)">
                        <g id="tap" transform="translate(125.000000, 19.000000)">
                            <path d="M18.0000328,7.5 C19.1030476,7.5 20,8.24746094 20,9.16667969 L20,14.5833203 C20,17.57 17.0839554,20 13.4999895,20 L10.3647575,20 C8.71293069,20 7.13774442,19.4824219 5.92968287,18.5432812 L0.158671751,14.0547656 C0.05760933,13.9758203 6.53699317e-13,13.8655469 6.53699317e-13,13.75 L6.53699317e-13,13.4318359 C6.53699317e-13,12.4585156 0.950202383,11.6666797 2.11818585,11.6666797 C2.44532621,11.6666797 2.77293533,11.7309766 3.06543511,11.8530469 L6.2763701,13.1909375 C6.49949492,13.2845312 6.69140102,13.2092578 6.76269784,13.1726172 C6.83399466,13.1359766 7.00002578,13.0281641 7.00002578,12.8182031 L7.00002578,1.66667969 C7.00002578,0.747460938 7.89702508,0 9.00003984,0 C10.1030546,0 11,0.747460938 11.0000539,1.66667969 L11.0000539,6.05710938 C11.2944756,5.9146875 11.6362878,5.83332031 12.0000375,5.83332031 C12.7270682,5.83332031 13.3642864,6.15804687 13.7143955,6.64265625 C14.0630046,6.39730469 14.5117387,6.25 15.0000352,6.25 C16.0268781,6.25 16.8755024,6.89820313 16.9873461,7.72988281 C17.2847209,7.58382812 17.6308925,7.5 18.0000328,7.5 Z M19.0000164,14.5833203 L19.0000164,9.16664062 C19.0000164,8.70726562 18.5512824,8.33332031 18.0000305,8.33332031 C17.4487832,8.33332031 17.0000492,8.70726562 17.0000492,9.16664062 C17.0000492,9.39695312 16.7764088,9.58332031 16.5000305,9.58332031 C16.2236592,9.58332031 16.0000187,9.39695312 16.0000187,9.16664062 L16.0000187,7.91664062 C16.0000187,7.45726562 15.5512847,7.08332031 15.0000305,7.08332031 C14.4522075,7.08332031 14.0039422,7.45402344 14.0000516,7.91015625 L14.0000516,7.91667969 C14.0000516,8.14699219 13.7764111,8.33335937 13.5000305,8.33335937 C13.2251147,8.33335937 13.0019898,8.14820312 13.0000305,7.91953125 L13.0000305,7.91914062 C13.0000305,7.91832031 13.0000305,7.9175 13.0000305,7.91667969 L13.0000305,7.5 C13.0000305,7.040625 12.5512871,6.66667969 12.0000305,6.66667969 C11.4487879,6.66667969 11.0000539,7.040625 11.0000539,7.5 L11.0000539,7.91667969 C11.0000539,8.14699219 10.7764135,8.33335937 10.5000305,8.33335937 C10.2236639,8.33335937 10.0000305,8.14699219 10.0000305,7.91667969 L10.0000305,1.66667969 C10.0000305,1.20726562 9.55124254,0.833359375 8.99999297,0.833359375 C8.4487434,0.833359375 8.00000937,1.20730469 8.00000937,1.66667969 L8.00000937,12.8182031 C8.00000937,13.2548047 7.73390021,13.6523437 7.28858806,13.8818359 C6.8432759,14.1105078 6.29741696,14.1320703 5.82913607,13.9363672 L2.61820108,12.5984766 C2.4638887,12.5341797 2.29054509,12.5 2.11818585,12.5 C1.50149883,12.5 1.00003047,12.9178906 1.00003047,13.4318359 L1.00003047,13.5689453 L6.61236983,17.9337109 C7.63433779,18.7288281 8.96732112,19.1666406 10.3648044,19.1666406 L13.5000305,19.1666406 C16.5327527,19.1666406 19.0000164,17.1105859 19.0000164,14.5833203 Z" id="Combined-Shape"></path>
                        </g>
                    </g>
                </g>
            </g>
        </g>
    </g>
</svg>