<?xml version="1.0" encoding="UTF-8"?>
<svg width="33px" height="30px" viewBox="0 0 33 30" version="1.1" xmlns="http://www.w3.org/2000/svg" xmlns:xlink="http://www.w3.org/1999/xlink">
    <!-- Generator: Sketch 55.2 (78181) - https://sketchapp.com -->
    <title>upload (1) 2 copy</title>
    <desc>Created with Sketch.</desc>
    <g id="Page-1" stroke="none" stroke-width="1" fill="none" fill-rule="evenodd">
        <g id="UI-kit" transform="translate(-243.000000, -1076.000000)">
            <g id="Buttons" transform="translate(128.000000, 180.000000)">
                <g id="upload-(1)-2-copy" transform="translate(115.000000, 895.000000)">
                    <rect id="Rectangle" fill="#D8D8D8" opacity="0" x="2" y="0" width="20" height="20"></rect>
                    <g id="image-2" transform="translate(0.000000, 1.000000)" fill-rule="nonzero">
                        <g id="image">
                            <path d="M18.6665954,8.37957595 C18.1066895,8.48384435 17.5583191,8.64575705 17.0449829,8.85408192 C13.5567322,10.1968554 11.0834046,13.5531532 11.0834046,17.4767812 C11.0834046,18.4838613 11.2466126,19.4676293 11.5617065,20.370441 L2.625,20.370441 C1.1817627,20.370441 0,19.1978455 0,17.7662744 L0,2.60416667 C0,1.17238363 1.1817627,0 2.625,0 L16.0415954,0 C17.4918823,0 18.6665954,1.16560194 18.6665954,2.60416667 L18.6665954,8.37957595 Z" id="Path" fill="#E0E2EA"></path>
                            <path d="M7,5.74544103 C7,6.70420161 6.21643066,7.48155214 5.25,7.48155214 C4.28356934,7.48155214 3.5,6.70420161 3.5,5.74544103 C3.5,4.78646853 4.28356934,4.00932992 5.25,4.00932992 C6.21643066,4.00932992 7,4.78646853 7,5.74544103 Z" id="Path" fill="#B4BEDB"></path>
                            <path d="M11.0834046,17.4767812 C11.0834046,18.4838613 11.2466126,19.4676293 11.5617065,20.370441 L2.625,20.370441 C1.17834473,20.370441 0,19.2014482 0,17.7662744 L0,13.9352587 L2.63674928,11.319436 C3.42993164,10.5323368 4.7366638,10.5323368 5.53005983,11.319436 L7,12.77771 L12.5533447,7.2684394 C13.3467407,6.48155214 14.6532592,6.48155214 15.4466553,7.2684394 L17.0449829,8.85408192 C13.5567322,10.1968554 11.0834046,13.5531532 11.0834046,17.4767812 L11.0834046,17.4767812 Z" id="Path" fill="#B4BEDB"></path>
                            <path d="M31.4167023,17.4767463 C31.4167023,23.5520814 26.4918965,28.4768872 20.4165614,28.4768872 C14.3414602,28.4768872 9.41670228,23.5520334 9.41670228,17.4767463 C9.41670228,11.401693 14.3415081,6.47688718 20.4165614,6.47688718 C26.4918485,6.47688718 31.4167023,11.4016451 31.4167023,17.4767463 Z" id="Path" stroke="#FFFFFF" stroke-width="2" fill="#92ADFF"></path>
                            <g id="Group" transform="translate(16.296875, 13.389757)" fill="#FFFFFF">
                                <path d="M4.11972045,8.13802083 C3.63671875,8.13802083 3.24472045,7.74913363 3.24472045,7.26996528 L3.24472045,0.904295193 C3.24472045,0.425126845 3.63671875,0.0362396376 4.11972045,0.0362396376 C4.60272214,0.0362396376 4.99472045,0.425126845 4.99472045,0.904295193 L4.99472045,7.26996528 C4.99472045,7.74913363 4.60272214,8.13802083 4.11972045,8.13802083 Z" id="Path"></path>
                                <path d="M7.328125,4.95507981 L0.911529555,4.95507981 C0.428527859,4.95507981 0.0365295547,4.5661926 0.0365295547,4.08702425 C0.0365295547,3.6078559 0.428527859,3.2189687 0.911529555,3.2189687 L7.328125,3.2189687 C7.8111267,3.2189687 8.203125,3.6078559 8.203125,4.08702425 C8.203125,4.5661926 7.8111267,4.95507981 7.328125,4.95507981 Z" id="Path"></path>
                            </g>
                        </g>
                    </g>
                </g>
            </g>
        </g>
    </g>
</svg>