<?xml version="1.0" encoding="UTF-8"?>
<svg width="392px" height="423px" viewBox="0 0 392 423" version="1.1" xmlns="http://www.w3.org/2000/svg" xmlns:xlink="http://www.w3.org/1999/xlink">
    <!-- Generator: Sketch 55.2 (78181) - https://sketchapp.com -->
    <title>Group</title>
    <desc>Created with Sketch.</desc>
    <g id="Page-1" stroke="none" stroke-width="1" fill="none" fill-rule="evenodd" opacity="0.497372582">
        <g id="Fotocloud_Upload_Photo-Copy-5" transform="translate(-1002.000000, -1313.000000)" fill="#FFFFFF" fill-rule="nonzero">
            <g id="3" transform="translate(0.000000, 1313.000000)">
                <g id="bg">
                    <g id="3574-[преобразованный]-copy-2" transform="translate(1252.000000, -173.000000) rotate(-180.000000) translate(-1252.000000, 173.000000) translate(707.000000, -769.000000)">
                        <g id="Group">
                            <path d="M483.558976,162.237162 C483.558976,162.237162 483.558976,162.237162 483.558976,162.237162 C483.45808,162.237162 483.45808,162.237162 483.45808,162.237162 C483.45808,162.338015 483.45808,162.338015 483.558976,162.438868 C483.45808,162.338015 483.558976,162.338015 483.558976,162.237162 Z" id="Path"></path>
                            <path d="M685.350447,162.237162 C685.350447,162.237162 685.350447,162.237162 685.350447,162.237162 C685.249551,162.237162 685.249551,162.237162 685.249551,162.237162 C685.249551,162.338015 685.249551,162.338015 685.350447,162.438868 C685.249551,162.338015 685.350447,162.338015 685.350447,162.237162 Z" id="Path"></path>
                            <path d="M421.608994,350.528996 C422.41616,370.800372 435.229919,385.222296 446.631137,400.350188 C461.160123,419.512185 470.644322,441.195498 477.606127,463.887336 C477.606127,448.658591 477.606127,433.328994 477.606127,418.100249 C472.460445,403.678325 464.086099,391.071748 456.418023,377.960908 C449.052634,365.354331 442.897995,352.142638 439.871122,337.619861 C437.651416,326.828631 436.945146,315.835696 437.752312,305.044466 C427.561843,317.852749 421.00362,333.484904 421.608994,350.528996 Z" id="Path"></path>
                            <path d="M478.211502,382.801833 C477.807919,363.438131 478.514189,343.973576 477.30344,324.710727 C469.635364,307.263224 460.352957,289.311458 456.317127,270.452019 C447.438303,292.236184 445.218596,316.945075 451.171445,340.040324 C456.216232,359.807437 468.021033,376.347266 477.707023,393.895621 C477.807919,390.063222 478.00971,386.432527 478.211502,382.801833 Z" id="Path"></path>
                            <path d="M412.023899,357.790385 C403.447762,371.708046 402.035222,389.558959 405.062094,405.594524 C408.69434,424.857374 418.178539,442.204024 427.965426,458.643 C435.129023,470.846167 442.595307,482.847628 449.758905,495.050795 C460.352957,513.204265 469.433573,532.164557 477.606127,551.52826 C477.606127,536.198662 477.606127,520.869064 477.606127,505.539467 C473.973881,488.797932 469.938052,472.056398 464.28789,455.91998 C459.041312,440.792087 452.180402,426.269311 443.099786,413.259323 C434.422753,400.551894 423.324222,389.458106 416.967791,375.237887 C414.546293,369.489288 412.931961,363.639836 412.023899,357.790385 Z" id="Path"></path>
                            <path d="M489.713616,324.710727 C488.502867,343.973576 489.209137,363.438131 488.805554,382.801833 C489.007346,386.432527 489.209137,390.164074 489.410928,393.794768 C499.096919,376.246413 510.800824,359.807437 515.946507,339.939472 C521.79846,316.844223 519.679649,292.236184 510.800824,270.351167 C506.664099,289.311458 497.381692,307.263224 489.713616,324.710727 Z" id="Path"></path>
                            <path d="M547.224185,380.583076 C539.657005,394.299031 528.558474,405.392819 520.285024,418.503659 C503.839019,444.725339 495.868256,475.283682 489.410928,505.539467 C489.410928,520.768212 489.410928,536.097809 489.410928,551.326554 C493.244966,542.148966 497.280796,533.072231 501.619312,524.096348 C513.827696,499.185752 529.062952,476.090503 542.784772,452.08758 C558.322716,424.958227 573.557972,386.432527 554.892261,357.487827 C553.782408,365.556036 551.260014,373.321687 547.224185,380.583076 Z" id="Path"></path>
                            <path d="M489.310033,418.100249 C489.310033,433.328994 489.310033,448.658591 489.310033,463.887336 C496.372734,441.195498 505.856933,419.512185 520.285024,400.350188 C531.686242,385.222296 544.5,370.800372 545.307166,350.528996 C546.013436,333.484904 539.354317,317.852749 529.062952,305.044466 C529.769223,315.936549 529.163848,326.929484 526.944142,337.619861 C524.018166,352.142638 517.76263,365.354331 510.397241,377.960908 C502.830061,391.071748 494.455715,403.678325 489.310033,418.100249 Z" id="Path"></path>
                            <path d="M502.426478,253.710485 C502.830061,232.430583 493.648549,213.066881 483.558976,195.014263 C473.469402,213.066881 464.28789,232.430583 464.691473,253.710485 C465.095056,274.586976 474.982838,294.454942 483.558976,313.415234 C492.135113,294.454942 502.022895,274.586976 502.426478,253.710485 Z" id="Path"></path>
                            <path d="M749.015656,380.583076 C741.448475,394.299031 730.349945,405.392819 722.076494,418.503659 C705.630489,444.725339 697.659726,475.283682 691.202399,505.539467 C691.202399,520.768212 691.202399,536.097809 691.202399,551.326554 C695.036437,542.148966 699.072267,533.072231 703.410783,524.096348 C715.619167,499.185752 730.854423,476.090503 744.576243,452.08758 C760.114186,424.958227 775.349442,386.432527 756.683731,357.487827 C755.573878,365.556036 753.051485,373.321687 749.015656,380.583076 Z" id="Path"></path>
                            <path d="M680.002973,382.801833 C679.59939,363.438131 680.30566,343.973576 679.094911,324.710727 C671.426835,307.263224 662.144427,289.311458 658.108598,270.452019 C649.229773,292.236184 647.010067,316.945075 652.962915,340.040324 C658.007702,359.807437 669.812503,376.347266 679.498494,393.895621 C679.59939,390.063222 679.801181,386.432527 680.002973,382.801833 Z" id="Path"></path>
                            <path d="M691.101503,418.100249 C691.101503,433.328994 691.101503,448.658591 691.101503,463.887336 C698.164205,441.195498 707.648404,419.512185 722.076494,400.350188 C733.477712,385.222296 746.291471,370.800372 747.098637,350.528996 C747.804907,333.484904 741.145788,317.852749 730.854423,305.044466 C731.560693,315.936549 730.955319,326.929484 728.735613,337.619861 C725.809636,352.142638 719.554101,365.354331 712.188712,377.960908 C704.621532,391.071748 696.247186,403.678325 691.101503,418.100249 Z" id="Path"></path>
                            <path d="M623.400465,350.528996 C624.207631,370.800372 637.021389,385.222296 648.422607,400.350188 C662.951593,419.512185 672.435792,441.195498 679.397598,463.887336 C679.397598,448.658591 679.397598,433.328994 679.397598,418.100249 C674.251916,403.678325 665.87757,391.071748 658.209494,377.960908 C650.844105,365.354331 644.689465,352.142638 641.662593,337.619861 C639.442887,326.828631 638.736617,315.835696 639.543783,305.044466 C629.353313,317.852749 622.795091,333.484904 623.400465,350.528996 Z" id="Path"></path>
                            <path d="M691.505086,324.710727 C690.294338,343.973576 691.000608,363.438131 690.597025,382.801833 C690.798816,386.432527 691.000608,390.164074 691.202399,393.794768 C700.88839,376.246413 712.592295,359.807437 717.737978,339.939472 C723.58993,316.844223 721.47112,292.236184 712.592295,270.351167 C708.45557,289.311458 699.173162,307.263224 691.505086,324.710727 Z" id="Path"></path>
                            <path d="M613.81537,357.790385 C605.239233,371.708046 603.826692,389.558959 606.853564,405.594524 C610.485811,424.857374 619.97001,442.204024 629.756896,458.643 C636.920494,470.846167 644.386778,482.847628 651.550375,495.050795 C662.144427,513.204265 671.225044,532.164557 679.397598,551.52826 C679.397598,536.198662 679.397598,520.869064 679.397598,505.539467 C675.765352,488.797932 671.729522,472.056398 666.079361,455.91998 C660.832783,440.792087 653.971873,426.269311 644.891257,413.259323 C636.214223,400.551894 625.115693,389.458106 618.759261,375.237887 C616.337764,369.489288 614.723432,363.639836 613.81537,357.790385 Z" id="Path"></path>
                            <path d="M704.217949,253.710485 C704.621532,232.430583 695.44002,213.066881 685.350447,195.014263 C675.260873,213.066881 666.079361,232.430583 666.482944,253.710485 C666.886527,274.586976 676.774309,294.454942 685.350447,313.415234 C693.926584,294.454942 703.814366,274.586976 704.217949,253.710485 Z" id="Path"></path>
                            <path d="M786.347078,404.28344 C786.347078,404.28344 786.347078,404.28344 786.347078,404.28344 C786.447973,404.182588 786.347078,404.182588 786.347078,404.081735 C786.347078,404.182588 786.246182,404.182588 786.347078,404.28344 C786.246182,404.28344 786.246182,404.28344 786.347078,404.28344 Z" id="Path"></path>
                            <path d="M792.098135,464.391599 C795.730381,481.133134 799.76621,497.874668 805.416372,514.011086 C810.66295,529.138979 817.52386,543.661755 826.604476,556.671743 C835.281509,569.379173 846.38004,580.47296 852.736471,594.693179 C855.258865,600.441778 856.873197,606.29123 857.781258,612.140682 C866.357396,598.223021 867.769936,580.372108 864.743064,564.336542 C861.110818,545.073692 851.626618,527.727042 841.839732,511.288066 C834.676135,499.084899 827.20985,487.083438 820.046253,474.880271 C809.452201,456.726801 800.371585,437.766509 792.19903,418.402807 C792.098135,433.732404 792.098135,449.062002 792.098135,464.391599 Z" id="Path"></path>
                            <path d="M714.912897,612.342387 C716.02275,604.274178 718.646039,596.508526 722.580973,589.247138 C730.148153,575.531182 741.246684,564.437394 749.520134,551.326554 C765.966139,525.104874 773.936902,494.546532 780.394229,464.290747 C780.394229,449.062002 780.394229,433.732404 780.394229,418.503659 C776.560191,427.681247 772.524362,436.757983 768.185845,445.733866 C755.977461,470.644462 740.742205,493.739711 727.020385,517.742633 C711.482442,544.871987 696.348082,583.397686 714.912897,612.342387 Z" id="Path"></path>
                            <path d="M584.555607,404.28344 C584.555607,404.28344 584.555607,404.28344 584.555607,404.28344 C584.656503,404.182588 584.555607,404.182588 584.555607,404.081735 C584.555607,404.182588 584.454711,404.182588 584.555607,404.28344 C584.454711,404.28344 584.454711,404.28344 584.555607,404.28344 Z" id="Path"></path>
                            <path d="M590.306664,464.391599 C593.93891,481.133134 597.97474,497.874668 603.624901,514.011086 C608.871479,529.138979 615.732389,543.661755 624.813005,556.671743 C633.490039,569.379173 644.588569,580.47296 650.945001,594.693179 C653.467394,600.441778 655.081726,606.29123 655.989788,612.140682 C664.565925,598.223021 665.978465,580.372108 662.951593,564.336542 C659.319347,545.073692 649.835148,527.727042 640.048261,511.288066 C632.884664,499.084899 625.41838,487.083438 618.254783,474.880271 C607.66073,456.726801 598.580114,437.766509 590.40756,418.402807 C590.306664,433.732404 590.306664,449.062002 590.306664,464.391599 Z" id="Path"></path>
                            <path d="M513.121426,612.342387 C514.231279,604.274178 516.854569,596.508526 520.789502,589.247138 C528.356682,575.531182 539.455213,564.437394 547.728664,551.326554 C564.174668,525.104874 572.145431,494.546532 578.602759,464.290747 C578.602759,449.062002 578.602759,433.732404 578.602759,418.503659 C574.768721,427.681247 570.732891,436.757983 566.394375,445.733866 C554.185991,470.644462 538.950735,493.739711 525.228915,517.742633 C509.690971,544.871987 494.556611,583.397686 513.121426,612.342387 Z" id="Path"></path>
                            <path d="M388.515193,464.391599 C392.14744,481.133134 396.183269,497.874668 401.83343,514.011086 C407.080008,529.138979 413.940918,543.661755 423.021535,556.671743 C431.698568,569.379173 442.797099,580.47296 449.15353,594.693179 C451.675923,600.441778 453.290255,606.29123 454.198317,612.140682 C462.774454,598.223021 464.186995,580.372108 461.160123,564.336542 C457.527876,545.073692 448.043677,527.727042 438.256791,511.288066 C431.093193,499.084899 423.626909,487.083438 416.463312,474.880271 C405.86926,456.726801 396.788643,437.766509 388.616089,418.402807 C388.515193,433.732404 388.515193,449.062002 388.515193,464.391599 Z" id="Path"></path>
                            <path d="M611.69656,296.169436 C620.575384,274.385271 622.795091,249.67638 616.842242,226.581131 C611.797455,206.814019 599.992654,190.27419 590.306664,172.725835 C590.104872,176.356529 589.903081,180.088075 589.701289,183.71877 C590.104872,203.082472 589.398602,222.547027 590.609351,241.809876 C598.479218,259.257379 607.761626,277.209144 611.69656,296.169436 Z" id="Path"></path>
                            <path d="M565.587209,312.810118 C565.183626,334.09002 574.365138,353.453722 584.454711,371.50634 C594.544285,353.453722 603.725797,334.09002 603.322214,312.810118 C602.918631,291.933626 593.030849,272.065661 584.454711,253.105369 C575.878574,272.065661 565.990792,291.933626 565.587209,312.810118 Z" id="Path"></path>
                            <path d="M557.51555,188.559695 C565.08273,175.448855 573.557972,162.842278 578.703654,148.420354 C578.703654,133.191609 578.703654,117.862011 578.703654,102.633267 C571.640953,125.325105 562.156754,147.008417 547.728664,166.170414 C536.327445,181.298307 523.513687,195.720231 522.706521,215.991607 C522.000251,233.035699 528.65937,248.667854 538.950735,261.476136 C538.244464,250.584054 538.849839,239.591119 541.069545,228.900742 C543.995521,214.377965 550.150161,201.166272 557.51555,188.559695 Z" id="Path"></path>
                            <path d="M624.813005,153.26128 C633.490039,165.968709 644.588569,177.062497 650.945001,191.282716 C653.467394,197.031315 655.081726,202.880767 655.989788,208.730218 C664.565925,194.812557 665.978465,176.961644 662.951593,160.926078 C659.319347,141.663229 649.835148,124.316579 640.048261,107.877603 C632.884664,95.674436 625.41838,83.6729747 618.254783,71.4698082 C607.66073,53.3163374 598.580114,34.3560456 590.40756,14.9923434 C590.40756,30.321941 590.40756,45.6515386 590.40756,60.9811362 C594.039806,77.7226704 598.075635,94.4642046 603.725797,110.600623 C608.871479,125.627663 615.732389,140.15044 624.813005,153.26128 Z" id="Path"></path>
                            <path d="M628.041669,228.900742 C630.261375,239.691971 630.967645,250.684907 630.160479,261.476136 C640.451844,248.667854 647.010067,232.934846 646.404693,215.991607 C645.597527,195.720231 632.783768,181.298307 621.38255,166.170414 C606.853564,147.008417 597.369365,125.325105 590.40756,102.633267 C590.40756,117.862011 590.40756,133.191609 590.40756,148.420354 C595.553242,162.842278 603.927588,175.448855 611.595664,188.559695 C618.860157,201.166272 625.014797,214.377965 628.041669,228.900742 Z" id="Path"></path>
                            <path d="M584.555607,0.872977151 C584.555607,0.772124535 584.555607,0.772124535 584.454711,0.671271919 C584.454711,0.772124535 584.454711,0.772124535 584.353815,0.872977151 C584.454711,0.872977151 584.454711,0.872977151 584.555607,0.872977151 C584.555607,0.872977151 584.555607,0.872977151 584.555607,0.872977151 Z" id="Path"></path>
                            <path d="M520.789502,185.937527 C528.356682,172.221571 539.455213,161.127784 547.728664,148.016944 C564.174668,121.795264 572.145431,91.2369209 578.602759,60.9811362 C578.602759,45.7523912 578.602759,30.4227936 578.602759,15.1940486 C574.768721,24.3716366 570.732891,33.4483721 566.394375,42.4242549 C554.185991,67.334851 538.950735,90.4301 525.228915,114.433023 C509.690971,141.562376 494.455715,180.088075 513.121426,209.032776 C514.231279,200.964567 516.753673,193.198916 520.789502,185.937527 Z" id="Path"></path>
                            <path d="M552.168076,226.581131 C546.316123,249.67638 548.434934,274.284419 557.313758,296.169436 C561.349588,277.309997 570.631995,259.358231 578.300071,241.910729 C579.51082,222.647879 578.80455,203.183324 579.208133,183.819622 C579.006341,180.188928 578.80455,176.457381 578.602759,172.826687 C568.916768,190.27419 557.212863,206.814019 552.168076,226.581131 Z" id="Path"></path>
                        </g>
                    </g>
                </g>
            </g>
        </g>
    </g>
</svg>