<?xml version="1.0" encoding="UTF-8"?>
<svg width="17px" height="21px" viewBox="0 0 17 21" version="1.1" xmlns="http://www.w3.org/2000/svg" xmlns:xlink="http://www.w3.org/1999/xlink">
    <!-- Generator: Sketch 55.2 (78181) - https://sketchapp.com -->
    <title>book 2</title>
    <desc>Created with Sketch.</desc>
    <g id="Page-1" stroke="none" stroke-width="1" fill="none" fill-rule="evenodd">
        <g id="UI-kit" transform="translate(-343.000000, -429.000000)" fill="#FFFFFF" fill-rule="nonzero">
            <g id="Buttons" transform="translate(128.000000, 180.000000)">
                <g id="book-2" transform="translate(215.000000, 249.000000)">
                    <g id="book">
                        <path d="M16.3878238,5.45308642 L3.36476684,5.45308642 C2.15803109,5.45308642 1.17150259,4.48950617 1.17150259,3.30123457 C1.17150259,2.11728395 2.15362694,1.14938272 3.36476684,1.14938272 L16.392228,1.14938272 C16.7181347,1.14938272 16.9779793,0.890123457 16.9779793,0.574691358 C16.9779793,0.254938272 16.7137306,0 16.392228,0 L3.36476684,0 C1.51062176,0 0,1.48209877 0,3.30123457 L0,17.6771605 C0,19.4962963 1.51062176,20.9783951 3.36476684,20.9783951 L16.392228,20.9783951 C16.7181347,20.9783951 16.9779793,20.7191358 16.9779793,20.4037037 L16.9779793,6.02777778 C16.9735751,5.71234568 16.7137306,5.45308642 16.3878238,5.45308642 Z M15.8020725,19.8290123 L3.36476684,19.8290123 C2.15803109,19.8290123 1.17150259,18.8654321 1.17150259,17.6771605 L1.17150259,5.80740741 C1.76165803,6.30432099 2.52797927,6.60679012 3.36476684,6.60679012 L15.8020725,6.60679012 L15.8020725,19.8290123 L15.8020725,19.8290123 Z" id="Shape"></path>
                        <path d="M3.54974093,2.77839506 C3.2238342,2.77839506 2.96398964,3.03765432 2.96398964,3.35308642 C2.96398964,3.66851852 3.22823834,3.92777778 3.54974093,3.92777778 L14.5512953,3.92777778 C14.8772021,3.92777778 15.1370466,3.66851852 15.1370466,3.35308642 C15.1370466,3.03765432 14.8727979,2.77839506 14.5512953,2.77839506 L3.54974093,2.77839506 Z" id="Path"></path>
                        <path d="M5.61088083,17.3141975 C5.67694301,17.3358025 5.74300518,17.3487654 5.80906736,17.3487654 C6.05129534,17.3487654 6.27590674,17.2018519 6.35958549,16.9685185 L7.07305699,15.0111111 L9.82124352,15.0111111 C9.84326425,15.0111111 9.86968912,15.0111111 9.89170984,15.0067901 L10.6051813,16.9685185 C10.6888601,17.2018519 10.9178756,17.3487654 11.1556995,17.3487654 C11.2217617,17.3487654 11.2878238,17.3358025 11.353886,17.3141975 C11.657772,17.2061728 11.8163212,16.8777778 11.7062176,16.5796296 L9.0373057,9.2382716 L9.0373057,9.2382716 C9.03290155,9.22098765 9.02409326,9.2037037 9.01528497,9.18641975 C9.01088083,9.17777778 9.00647668,9.1691358 9.00207254,9.16049383 C8.99766839,9.15185185 8.99326425,9.14320988 8.9888601,9.1345679 C8.98445596,9.12592593 8.97564767,9.11728395 8.97124352,9.10432099 C8.96683938,9.1 8.96243523,9.09135802 8.95803109,9.08703704 C8.95362694,9.07839506 8.94481865,9.06975309 8.93601036,9.06111111 C8.93160622,9.05679012 8.92720207,9.04814815 8.91839378,9.04382716 C8.91398964,9.03518519 8.90518135,9.0308642 8.89637306,9.02222222 C8.88756477,9.01358025 8.88316062,9.00925926 8.87435233,9.00061728 C8.86994819,8.9962963 8.8611399,8.99197531 8.85673575,8.98333333 C8.84792746,8.97469136 8.83911917,8.97037037 8.83031088,8.9617284 C8.82590674,8.95740741 8.81709845,8.95308642 8.8126943,8.94876543 C8.80388601,8.94444444 8.79507772,8.93580247 8.78626943,8.93148148 C8.77746114,8.92716049 8.76865285,8.92283951 8.75984456,8.91851852 C8.75103627,8.91419753 8.74222798,8.90987654 8.73341969,8.90555556 C8.71580311,8.89691358 8.69818653,8.8882716 8.68056995,8.88395062 L8.68056995,8.88395062 L8.6761658,8.88395062 C8.65854922,8.87962963 8.64093264,8.87530864 8.62331606,8.87098765 C8.61450777,8.87098765 8.61010363,8.86666667 8.60129534,8.86666667 C8.5880829,8.86234568 8.57927461,8.86234568 8.56606218,8.85802469 C8.55725389,8.85802469 8.5484456,8.85802469 8.53963731,8.8537037 C8.53082902,8.8537037 8.51761658,8.84938272 8.50880829,8.84938272 C8.5,8.84938272 8.49119171,8.84938272 8.48238342,8.84938272 C8.47357513,8.84938272 8.46476684,8.84938272 8.4515544,8.84938272 C8.44274611,8.84938272 8.42953368,8.84938272 8.42072539,8.8537037 C8.4119171,8.8537037 8.40310881,8.8537037 8.39430052,8.85802469 C8.38108808,8.85802469 8.37227979,8.86234568 8.35906736,8.86666667 C8.35025907,8.86666667 8.34585492,8.87098765 8.33704663,8.87098765 C8.31943005,8.87530864 8.30181347,8.87962963 8.28860104,8.88395062 L8.28419689,8.88395062 L8.28419689,8.88395062 C8.26658031,8.8882716 8.24896373,8.89691358 8.23134715,8.90555556 C8.22253886,8.90987654 8.21373057,8.91419753 8.20492228,8.91851852 C8.19611399,8.92283951 8.1873057,8.92716049 8.17849741,8.93148148 C8.16968912,8.93580247 8.16088083,8.94444444 8.14766839,8.94876543 C8.14326425,8.95308642 8.13445596,8.95740741 8.13005181,8.9617284 C8.12124352,8.97037037 8.11243523,8.97469136 8.10362694,8.98333333 C8.0992228,8.98765432 8.09041451,8.99197531 8.08601036,9.00061728 C8.07720207,9.00925926 8.07279793,9.01358025 8.06398964,9.02222222 C8.05518135,9.0308642 8.0507772,9.03518519 8.04196891,9.04382716 C8.03756477,9.04814815 8.03316062,9.05679012 8.02435233,9.06111111 C8.01554404,9.06975309 8.0111399,9.07839506 8.00233161,9.08703704 C7.99792746,9.09135802 7.99352332,9.1 7.98911917,9.10432099 C7.98471503,9.11296296 7.97590674,9.12160494 7.97150259,9.13024691 C7.96709845,9.13888889 7.9626943,9.14753086 7.95829016,9.15617284 C7.95388601,9.16481481 7.94948187,9.17345679 7.94507772,9.18209877 C7.93626943,9.19938272 7.92746114,9.21666667 7.92305699,9.23395062 L7.92305699,9.23395062 L5.24533679,16.5753086 C5.1484456,16.8777778 5.30699482,17.2061728 5.61088083,17.3141975 Z M8.48678756,11.1395062 L9.47772021,13.8617284 L7.49145078,13.8617284 L8.48678756,11.1395062 Z" id="Shape"></path>
                    </g>
                </g>
            </g>
        </g>
    </g>
</svg>