<?xml version="1.0" encoding="UTF-8"?>
<svg width="95px" height="81px" viewBox="0 0 95 81" version="1.1" xmlns="http://www.w3.org/2000/svg" xmlns:xlink="http://www.w3.org/1999/xlink">
    <!-- Generator: Sketch 55.2 (78181) - https://sketchapp.com -->
    <title>Path</title>
    <desc>Created with Sketch.</desc>
    <g id="Page-1" stroke="none" stroke-width="1" fill="none" fill-rule="evenodd">
        <g id="UI-kit" transform="translate(-930.000000, -2927.000000)" fill="#F3FCF1" stroke="#DBEDD7">
            <g id="Pop-ups" transform="translate(0.000000, 2440.000000)">
                <g id="Done" transform="translate(930.000000, 398.000000)">
                    <g id="Path">
                        <path d="M-22.2014849,129.816864 C-19.4404941,128.69523 -6.02996747,127.947475 -4.25504482,125.891147 C-2.48012217,123.834819 1.26693675,115.609506 10.3387636,115.04869 C19.4105905,114.487873 21.9743676,118.039712 21.9743676,118.039712 C21.9743676,118.039712 23.1576494,102.89766 24.7353584,96.1678594 C26.5102811,89.2511196 29.0740582,88.316425 29.0740582,90.7466309 C29.0740582,93.1768368 29.2712719,94.2984703 29.2712719,94.2984703 C29.2712719,94.2984703 31.6378354,96.3547983 31.835049,99.3458209 C31.835049,102.523782 32.0322626,106.823377 32.0322626,106.823377 C32.0322626,106.823377 34.9904671,110.001339 33.8071853,113.366239 C32.6239035,116.73114 32.8211172,123.274002 32.8211172,123.274002 C32.8211172,123.274002 38.1458851,121.217674 41.4985168,117.478896 C44.8511484,113.740117 68.7139974,105.140927 77.391397,96.3547983 C86.0687966,87.5686694 91.5907782,80.4649907 92.182419,79.1564183 C92.7740599,77.660907 92.5768463,87.3817305 92.5768463,87.3817305 C92.5768463,87.3817305 95.3378371,89.9988753 93.1684872,92.9898979 C90.9991373,95.9809205 89.4214283,98.9719431 89.4214283,98.9719431 C89.4214283,98.9719431 91.1963509,102.710721 86.8576511,106.075622 C82.3217377,109.440522 79.7579605,113.179301 79.7579605,113.179301 C79.7579605,113.179301 80.3496014,118.787468 77.1941834,120.656857 C74.0387653,122.526246 71.4749882,124.769513 71.4749882,124.769513 C71.4749882,124.769513 71.8694154,130.190742 69.3056383,131.125436 C66.7418611,132.24707 64.5725112,134.303398 64.5725112,134.303398 C64.5725112,134.303398 65.1641521,138.229115 62.6003749,139.724626 C60.0365978,141.220138 54.9090434,145.519733 54.9090434,145.519733 C54.9090434,145.519733 60.2338114,151.688717 62.6003749,161.783418 C64.7697248,171.878119 73.6443381,181.598943 82.3217377,186.646293 C90.9991373,191.506705 85.871583,191.132827 79.1663196,187.954866 C72.2638427,184.776904 64.5725112,181.785882 64.5725112,181.785882 C64.5725112,181.785882 69.3056383,189.637316 69.8972791,193.002217 C70.48892,196.367117 70.0944928,199.545079 67.1362883,193.936911 C64.1780839,188.328744 54.7118298,182.346698 50.1759164,178.794859 C45.6400029,175.24302 32.2294763,166.830769 25.3269993,162.531174 C18.4245223,158.231579 14.2830362,153.184228 12.7053271,147.389122 C11.3248318,141.594015 8.7610546,137.668298 4.61956842,135.238092 C0.47808224,132.807886 -3.86061757,130.190742 -8.00210374,130.190742 C-12.1435899,130.377681 -19.2432805,131.125436 -21.609844,131.125436 C-24.3708348,130.938497 -24.9624757,130.003803 -22.2014849,129.816864 Z" transform="translate(35.000000, 138.000000) scale(-1, 1) translate(-35.000000, -138.000000) "></path>
                    </g>
                </g>
            </g>
        </g>
    </g>
</svg>