<?xml version="1.0" encoding="UTF-8"?>
<svg width="9px" height="13px" viewBox="0 0 9 13" version="1.1" xmlns="http://www.w3.org/2000/svg" xmlns:xlink="http://www.w3.org/1999/xlink">
    <!-- Generator: Sketch 55.2 (78181) - https://sketchapp.com -->
    <title>Delete</title>
    <desc>Created with Sketch.</desc>
    <g id="Page-1" stroke="none" stroke-width="1" fill="none" fill-rule="evenodd">
        <g id="Fotocloud_Upload_Photo-Mob" transform="translate(-265.000000, -441.000000)">
            <g id="Photo" transform="translate(25.000000, 105.000000)">
                <g id="Delete-Copy-2" transform="translate(230.000000, 328.000000)">
                    <g id="Delete" transform="translate(5.000000, 5.000000)">
                        <g>
                            <rect id="Rectangle" fill="#D8D8D8" opacity="0" x="0" y="0" width="20" height="20"></rect>
                            <path d="M7,5 L7,4 C7,3.44771525 7.44771525,3 8,3 L11,3 C11.5522847,3 12,3.44771525 12,4 L12,5 L14,5 L14,16 L5,16 L5,5 L7,5 Z M8,5 L11,5 L11,4 L8,4 L8,5 Z M7,6 L6,6 L6,15 L13,15 L13,6 L12,6 L7,6 Z M10.5,8 C10.7761424,8 11,8.22385763 11,8.5 L11,12.5 C11,12.7761424 10.7761424,13 10.5,13 C10.2238576,13 10,12.7761424 10,12.5 L10,8.5 C10,8.22385763 10.2238576,8 10.5,8 Z M8.5,8 C8.77614237,8 9,8.22385763 9,8.5 L9,12.5 C9,12.7761424 8.77614237,13 8.5,13 C8.22385763,13 8,12.7761424 8,12.5 L8,8.5 C8,8.22385763 8.22385763,8 8.5,8 Z" fill="#000000" fill-rule="nonzero"></path>
                        </g>
                    </g>
                </g>
            </g>
        </g>
    </g>
</svg>