<?xml version="1.0" encoding="UTF-8"?>
<svg width="93px" height="68px" viewBox="0 0 93 68" version="1.1" xmlns="http://www.w3.org/2000/svg" xmlns:xlink="http://www.w3.org/1999/xlink">
    <!-- Generator: Sketch 55.2 (78181) - https://sketchapp.com -->
    <title>cloud-computing 2</title>
    <desc>Created with Sketch.</desc>
    <defs>
        <linearGradient x1="50%" y1="0%" x2="50%" y2="100%" id="linearGradient-1">
            <stop stop-color="#B9CBFF" offset="0%"></stop>
            <stop stop-color="#98B2FF" offset="100%"></stop>
        </linearGradient>
    </defs>
    <g id="Page-1" stroke="none" stroke-width="1" fill="none" fill-rule="evenodd">
        <g id="Fotocloud_Upload_Photo-Mob" transform="translate(-114.000000, -255.000000)" fill-rule="nonzero">
            <g id="Photo" transform="translate(25.000000, 105.000000)">
                <g id="Upload" transform="translate(0.000000, 125.000000)">
                    <g id="cloud-computing-2" transform="translate(89.000000, 25.000000)">
                        <g id="cloud-computing">
                            <path d="M72.5779592,67.952381 L57.565102,67.952381 L53.522449,67.952381 L52.6493878,67.952381 L52.6493878,47.7428571 L59.2353061,47.7428571 C60.9055102,47.7428571 61.892449,45.8380952 60.9055102,44.4666667 L48.0942857,26.6761905 C47.2781633,25.5333333 45.5889796,25.5333333 44.7728571,26.6761905 L31.9616327,44.4666667 C30.9746939,45.8380952 31.9426531,47.7428571 33.6318367,47.7428571 L40.2177551,47.7428571 L40.2177551,67.952381 L39.3446939,67.952381 L35.3020408,67.952381 L17.8977551,67.952381 C7.93346939,67.4 0,58.047619 0,47.9142857 C0,40.9238095 3.77693878,34.8285714 9.37591837,31.5333333 C8.86346939,30.1428571 8.5977551,28.6571429 8.5977551,27.0952381 C8.5977551,19.952381 14.3485714,14.1809524 21.4659184,14.1809524 C23.0032653,14.1809524 24.4836735,14.447619 25.8691837,14.9619048 C29.9877551,6.2 38.8702041,0.123809524 49.195102,0.123809524 C62.5567347,0.142857143 73.564898,10.4095238 74.817551,23.4952381 C85.0855102,25.2666667 92.8861224,34.8095238 92.8861224,45.6095238 C92.8861224,57.152381 83.9277551,67.152381 72.5779592,67.952381 Z" id="Path" fill="url(#linearGradient-1)"></path>
                            <g id="Group" opacity="0.05" transform="translate(9.434783, 5.386139)" fill="#000000">
                                <path d="M14.1521739,44.570297 C14.1521739,44.1239208 14.5140652,43.7623762 14.9608696,43.7623762 C15.4076739,43.7623762 15.7695652,44.1239208 15.7695652,44.570297 C15.7695652,45.0166733 15.4076739,45.3782178 14.9608696,45.3782178 C14.5147391,45.3782178 14.1521739,45.0166733 14.1521739,44.570297 Z" id="Path"></path>
                                <path d="M4.7173913,35.1310891 C4.7173913,34.6927921 5.07321739,34.3366337 5.5126087,34.3366337 C5.952,34.3366337 6.30782609,34.6921188 6.30782609,35.1310891 C6.30782609,35.5700594 5.952,35.9255446 5.5126087,35.9255446 C5.07321739,35.9255446 4.7173913,35.5700594 4.7173913,35.1310891 Z" id="Path"></path>
                                <path d="M1.34782609,40.510495 C1.34782609,40.0755644 1.70095652,39.7227723 2.13630435,39.7227723 C2.57165217,39.7227723 2.92478261,40.0755644 2.92478261,40.510495 C2.92478261,40.9454257 2.57165217,41.2982178 2.13630435,41.2982178 C1.70095652,41.2975446 1.34782609,40.9454257 1.34782609,40.510495 Z" id="Path"></path>
                                <path d="M11.4565217,34.4685941 C11.4565217,34.0235644 11.8177391,33.6633663 12.2625217,33.6633663 C12.7079783,33.6633663 13.0685217,34.0242376 13.0685217,34.4685941 C13.0685217,34.9136238 12.7073043,35.2738227 12.2625217,35.2738227 C11.8170652,35.274495 11.4565217,34.9136238 11.4565217,34.4685941 Z" id="Path"></path>
                                <path d="M52.5901522,58.2376238 C52.5901522,58.0652673 52.7296522,57.925901 52.9021739,57.925901 C53.0746957,57.925901 53.2141957,58.0652673 53.2141957,58.2376238 C53.2141957,58.4093069 53.0746957,58.5493465 52.9021739,58.5493465 C52.7296522,58.5493465 52.5901522,58.4099802 52.5901522,58.2376238 Z" id="Path"></path>
                                <path d="M47.173913,54.576396 C47.173913,54.1818614 47.4940217,53.8613861 47.8896087,53.8613861 C48.2851957,53.8613861 48.6053043,54.1811881 48.6053043,54.576396 C48.6053043,54.9709307 48.2851957,55.2914059 47.8896087,55.2914059 C47.4940217,55.2914059 47.173913,54.971604 47.173913,54.576396 Z" id="Path"></path>
                                <path d="M10.7826087,47.950099 C10.7826087,47.4963168 11.1505652,47.1287129 11.6047826,47.1287129 C12.059,47.1287129 12.4269565,47.4963168 12.4269565,47.950099 C12.4269565,48.4038812 12.059,48.7708119 11.6047826,48.7708119 C11.1505652,48.7708119 10.7826087,48.4032079 10.7826087,47.950099 Z" id="Path"></path>
                                <path d="M4.04347826,45.7417822 C4.04347826,45.3923564 4.32719565,45.1089109 4.67695652,45.1089109 C5.02671739,45.1089109 5.31043478,45.3923564 5.31043478,45.7417822 C5.31043478,46.0912079 5.02671739,46.3746535 4.67695652,46.3746535 C4.32719565,46.3739802 4.04347826,46.0912079 4.04347826,45.7417822 Z" id="Path"></path>
                                <path d="M20.8913043,47.1751683 C20.8913043,46.7772673 21.2141087,46.4554455 21.6117174,46.4554455 C22.01,46.4554455 22.3321304,46.7779406 22.3321304,47.1751683 C22.3321304,47.5730693 22.0093261,47.8948911 21.6117174,47.8948911 C21.2141087,47.8948911 20.8913043,47.572396 20.8913043,47.1751683 Z" id="Path"></path>
                                <ellipse id="Oval" cx="13.4823043" cy="45.1129505" rx="1" ry="1"></ellipse>
                                <path d="M24.9347826,47.7474455 C24.9347826,47.406099 25.2117609,47.1287129 25.5541087,47.1287129 C25.8957826,47.1287129 26.1734348,47.4054257 26.1734348,47.7474455 C26.1734348,48.0887921 25.8964565,48.3661782 25.5541087,48.3661782 C25.2124348,48.3661782 24.9347826,48.0887921 24.9347826,47.7474455 Z" id="Path"></path>
                                <path d="M8.08695652,46.6089505 C8.08695652,46.1524752 8.4576087,45.7821782 8.91452174,45.7821782 C9.37143478,45.7821782 9.74141304,46.1524752 9.74141304,46.6089505 C9.74141304,47.0654257 9.37076087,47.4357228 8.91452174,47.4357228 C8.4576087,47.4357228 8.08695652,47.0654257 8.08695652,46.6089505 Z" id="Path"></path>
                                <path d="M11.4565217,53.8149307 C11.4565217,53.4688713 11.7375435,53.1881188 12.0839348,53.1881188 C12.4303261,53.1881188 12.7113478,53.4688713 12.7113478,53.8149307 C12.7113478,54.1609901 12.4303261,54.4417426 12.0839348,54.4417426 C11.7375435,54.4417426 11.4565217,54.1609901 11.4565217,53.8149307 Z" id="Path"></path>
                                <path d="M-6.82343071e-13,48.6233663 C-6.82343071e-13,48.1695842 0.367956522,47.8019802 0.822173913,47.8019802 C1.2763913,47.8019802 1.64434783,48.1695842 1.64434783,48.6233663 C1.64434783,49.0771485 1.2763913,49.4447525 0.822173913,49.4447525 C0.367956522,49.4447525 -6.82343071e-13,49.0771485 -6.82343071e-13,48.6233663 Z" id="Path"></path>
                                <path d="M14.8833696,50.1584158 C14.8833696,50.0042376 15.0087174,49.8790099 15.1630435,49.8790099 C15.3173696,49.8790099 15.4427174,50.0042376 15.4427174,50.1584158 C15.4427174,50.3125941 15.3173696,50.4378218 15.1630435,50.4378218 C15.0087174,50.4378218 14.8833696,50.3125941 14.8833696,50.1584158 Z" id="Path"></path>
                                <ellipse id="Oval" cx="15.3086087" cy="45.5909703" rx="1" ry="1"></ellipse>
                                <path d="M13.4782609,53.1928317 C13.4782609,52.818495 13.7821957,52.5148515 14.1575652,52.5148515 C14.5329348,52.5148515 14.8368696,52.818495 14.8368696,53.1928317 C14.8368696,53.5678416 14.5329348,53.8714851 14.1575652,53.8714851 C13.7821957,53.8714851 13.4782609,53.5671683 13.4782609,53.1928317 Z" id="Path"></path>
                                <path d="M16.8478261,39.7631683 C16.8478261,39.3693069 17.1679348,39.049505 17.5621739,39.049505 C17.957087,39.049505 18.2765217,39.3693069 18.2765217,39.7631683 C18.2765217,40.1570297 17.956413,40.4768327 17.5621739,40.4768327 C17.1679348,40.477505 16.8478261,40.157703 16.8478261,39.7631683 Z" id="Path"></path>
                                <ellipse id="Oval" cx="16.7669565" cy="50.4142574" rx="1" ry="1"></ellipse>
                                <path d="M18.3257174,48.1386139 C18.3257174,48.0248317 18.4180435,47.9319208 18.5326087,47.9319208 C18.6471739,47.9319208 18.7395,48.0241584 18.7395,48.1386139 C18.7395,48.2530693 18.6471739,48.3453069 18.5326087,48.3453069 C18.4180435,48.3453069 18.3257174,48.2530693 18.3257174,48.1386139 Z" id="Path"></path>
                                <path d="M18.3371739,41.4059406 C18.3371739,41.2982178 18.4247826,41.2106931 18.5326087,41.2106931 C18.6404348,41.2106931 18.7280435,41.2982178 18.7280435,41.4059406 C18.7280435,41.5136634 18.6404348,41.6011881 18.5326087,41.6011881 C18.4247826,41.6011881 18.3371739,41.5136634 18.3371739,41.4059406 Z" id="Path"></path>
                                <ellipse id="Oval" cx="20.4883043" cy="46.0528317" rx="1" ry="1"></ellipse>
                                <ellipse id="Oval" cx="19.4578913" cy="51.0828119" rx="1" ry="1"></ellipse>
                                <path d="M14.826087,56.3100594 C14.826087,56.0730693 15.0181522,55.8811881 15.2553696,55.8811881 C15.492587,55.8811881 15.6846522,56.0730693 15.6846522,56.3100594 C15.6846522,56.5470495 15.492587,56.7389307 15.2553696,56.7389307 C15.0188261,56.7389307 14.826087,56.5470495 14.826087,56.3100594 Z" id="Path"></path>
                                <path d="M14.826087,34.1144554 C14.826087,33.8653465 15.0282609,33.6633663 15.2782826,33.6633663 C15.5276304,33.6633663 15.7304783,33.8653465 15.7304783,34.1144554 C15.7304783,34.3635644 15.5283043,34.5662178 15.2782826,34.5662178 C15.0282609,34.5662178 14.826087,34.3642376 14.826087,34.1144554 Z" id="Path"></path>
                                <path d="M75.4782609,35.8306139 C75.4782609,35.377505 75.8462174,35.009901 76.2997609,35.009901 C76.7533043,35.009901 77.1212609,35.377505 77.1212609,35.8306139 C77.1212609,36.2837228 76.7533043,36.6513267 76.2997609,36.6513267 C75.8462174,36.6513267 75.4782609,36.284396 75.4782609,35.8306139 Z" id="Path"></path>
                                <path d="M12.3103696,45.4455446 C12.3103696,45.3586931 12.3804565,45.2886733 12.4673913,45.2886733 C12.5543261,45.2886733 12.624413,45.3586931 12.624413,45.4455446 C12.624413,45.532396 12.5543261,45.6024158 12.4673913,45.6024158 C12.3811304,45.6024158 12.3103696,45.532396 12.3103696,45.4455446 Z" id="Path"></path>
                                <path d="M23.5869565,53.1975446 C23.5869565,52.8205149 23.892913,52.5148515 24.2703043,52.5148515 C24.6476957,52.5148515 24.9543261,52.8205149 24.9543261,53.1975446 C24.9543261,53.5745743 24.6483696,53.8802387 24.2703043,53.8802387 C23.892913,53.8809109 23.5869565,53.5745743 23.5869565,53.1975446 Z" id="Path"></path>
                                <path d="M20.2173913,48.3358812 C20.2173913,48.0409901 20.4566304,47.8019802 20.7518043,47.8019802 C21.0469783,47.8019802 21.2862174,48.0409901 21.2862174,48.3358812 C21.2862174,48.6307723 21.0469783,48.8697822 20.7518043,48.8697822 C20.4566304,48.8697822 20.2173913,48.6307723 20.2173913,48.3358812 Z" id="Path"></path>
                                <path d="M63.3478261,30.4613069 C63.3478261,29.9987723 63.7231957,29.6237624 64.1861739,29.6237624 C64.6491522,29.6237624 65.0245217,29.9987723 65.0245217,30.4613069 C65.0245217,30.9238416 64.6491522,31.2988524 64.1861739,31.2988524 C63.7231957,31.2995248 63.3478261,30.9245149 63.3478261,30.4613069 Z" id="Path"></path>
                                <path d="M16.173913,47.5441188 C16.173913,47.3145347 16.359913,47.1287129 16.5897174,47.1287129 C16.8195217,47.1287129 17.0055217,47.3145347 17.0055217,47.5441188 C17.0055217,47.773703 16.8195217,47.9595248 16.5897174,47.9595248 C16.360587,47.9595248 16.173913,47.773703 16.173913,47.5441188 Z" id="Path"></path>
                                <path d="M14.9426739,48.8118812 C14.9426739,48.6906931 15.0410652,48.5917228 15.1630435,48.5917228 C15.2843478,48.5917228 15.383413,48.6900198 15.383413,48.8118812 C15.383413,48.9330693 15.2850217,49.0320396 15.1630435,49.0320396 C15.0410652,49.0320396 14.9426739,48.9337426 14.9426739,48.8118812 Z" id="Path"></path>
                                <path d="M19.5434783,52.5525545 C19.5434783,52.1600396 19.8622391,51.8415842 20.2551304,51.8415842 C20.6480217,51.8415842 20.9667826,52.1600396 20.9667826,52.5525545 C20.9667826,52.9450693 20.6480217,53.2635248 20.2551304,53.2635248 C19.8615652,53.2628515 19.5434783,52.9450693 19.5434783,52.5525545 Z" id="Path"></path>
                                <path d="M17.5217391,53.8432079 C17.5217391,53.4816634 17.8148913,53.1881188 18.1767826,53.1881188 C18.5386739,53.1881188 18.8318261,53.4809901 18.8318261,53.8432079 C18.8318261,54.2047525 18.5386739,54.498297 18.1767826,54.498297 C17.8148913,54.4976238 17.5217391,54.2047525 17.5217391,53.8432079 Z" id="Path"></path>
                                <ellipse id="Oval" cx="70.7453696" cy="48.4597624" rx="1" ry="1"></ellipse>
                                <ellipse id="Oval" cx="21.2228696" cy="45.4401584" rx="1" ry="1"></ellipse>
                                <path d="M8.76086957,59.6797624 C8.76086957,59.4407525 8.95495652,59.2475248 9.19352174,59.2475248 C9.43276087,59.2475248 9.62617391,59.4414257 9.62617391,59.6797624 C9.62617391,59.9187723 9.43208696,60.112 9.19352174,60.112 C8.95495652,60.112 8.76086957,59.9187723 8.76086957,59.6797624 Z" id="Path"></path>
                                <path d="M73.4565217,44.1764356 C73.4565217,43.9475248 73.6418478,43.7623762 73.8709783,43.7623762 C74.1001087,43.7623762 74.2854348,43.9475248 74.2854348,44.1764356 C74.2854348,44.4053465 74.1001087,44.590495 73.8709783,44.590495 C73.6418478,44.590495 73.4565217,44.4053465 73.4565217,44.1764356 Z" id="Path"></path>
                                <path d="M64.0217391,46.3174257 C64.0217391,46.0218614 64.2616522,45.7821782 64.5575,45.7821782 C64.8533478,45.7821782 65.0932609,46.0218614 65.0932609,46.3174257 C65.0932609,46.6129901 64.8533478,46.8526733 64.5575,46.8526733 C64.2616522,46.8526733 64.0217391,46.6129901 64.0217391,46.3174257 Z" id="Path"></path>
                                <path d="M12.9108261,44.7722772 C12.9108261,44.6450297 13.0139348,44.5420198 13.1413043,44.5420198 C13.2686739,44.5420198 13.3717826,44.6450297 13.3717826,44.7722772 C13.3717826,44.8995248 13.2686739,45.0025347 13.1413043,45.0025347 C13.0139348,45.0025347 12.9108261,44.8995248 12.9108261,44.7722772 Z" id="Path"></path>
                                <path d="M66.0434783,40.8491485 C66.0434783,40.5986931 66.2463261,40.3960396 66.4970217,40.3960396 C66.7477174,40.3960396 66.9505652,40.5986931 66.9505652,40.8491485 C66.9505652,41.099604 66.7477174,41.3022574 66.4970217,41.3022574 C66.247,41.3022574 66.0434783,41.099604 66.0434783,40.8491485 Z" id="Path"></path>
                                <ellipse id="Oval" cx="59.3663478" cy="53.9233267" rx="1" ry="1"></ellipse>
                                <ellipse id="Oval" cx="58.5239565" cy="42.9827327" rx="1" ry="1"></ellipse>
                                <path d="M13.6420217,48.1386139 C13.6420217,48.0430099 13.7195217,47.9655842 13.8152174,47.9655842 C13.910913,47.9655842 13.988413,48.0430099 13.988413,48.1386139 C13.988413,48.2342178 13.910913,48.3116436 13.8152174,48.3116436 C13.7195217,48.3116436 13.6420217,48.2342178 13.6420217,48.1386139 Z" id="Path"></path>
                                <path d="M62.673913,49.9342178 C62.673913,49.5006337 63.0256957,49.1485149 63.4603696,49.1485149 C63.8950435,49.1485149 64.2468261,49.4999604 64.2468261,49.9342178 C64.2468261,50.3684752 63.8950435,50.7199208 63.4603696,50.7199208 C63.0256957,50.7199208 62.673913,50.3684752 62.673913,49.9342178 Z" id="Path"></path>
                                <ellipse id="Oval" cx="7.56467391" cy="31.7950495" rx="1" ry="1"></ellipse>
                                <path d="M59.9782609,38.8663762 C59.9782609,38.5957228 60.1979565,38.3762376 60.4688696,38.3762376 C60.7397826,38.3762376 60.9594783,38.5957228 60.9594783,38.8663762 C60.9594783,39.1370297 60.7397826,39.3565149 60.4688696,39.3565149 C60.1979565,39.3565149 59.9782609,39.1370297 59.9782609,38.8663762 Z" id="Path"></path>
                                <path d="M57.9565217,36.203604 C57.9565217,35.9161188 58.1896957,35.6831683 58.4774565,35.6831683 C58.7652174,35.6831683 58.9983913,35.9161188 58.9983913,36.203604 C58.9983913,36.4910891 58.7652174,36.7240396 58.4774565,36.7240396 C58.1896957,36.7240396 57.9565217,36.4910891 57.9565217,36.203604 Z" id="Path"></path>
                                <path d="M62.673913,40.4034455 C62.673913,40.0270891 62.9791957,39.7227723 63.3552391,39.7227723 C63.7319565,39.7227723 64.0365652,40.0277624 64.0365652,40.4034455 C64.0365652,40.779802 63.7312826,41.0847921 63.3552391,41.0847921 C62.9791957,41.0841188 62.673913,40.7791287 62.673913,40.4034455 Z" id="Path"></path>
                                <path d="M15.0255652,42.0792079 C15.0255652,42.0031287 15.0868913,41.9418614 15.1630435,41.9418614 C15.2391957,41.9418614 15.3005217,42.0031287 15.3005217,42.0792079 C15.3005217,42.1552871 15.2391957,42.2165545 15.1630435,42.2165545 C15.0868913,42.2165545 15.0255652,42.1552871 15.0255652,42.0792079 Z" id="Path"></path>
                                <path d="M62.7278261,38.0392673 C62.7278261,37.8830693 62.8545217,37.756495 63.0108696,37.756495 C63.1672174,37.756495 63.293913,37.8830693 63.293913,38.0392673 C63.293913,38.1954653 63.1672174,38.3227129 63.0108696,38.3227129 C62.8551957,38.3220396 62.7278261,38.1954653 62.7278261,38.0392673 Z" id="Path"></path>
                                <path d="M66.0434783,43.1241188 C66.0434783,42.7329505 66.3608913,42.4158416 66.7531087,42.4158416 C67.1453261,42.4158416 67.4627391,42.7329505 67.4627391,43.1241188 C67.4627391,43.5152871 67.1453261,43.8330693 66.7531087,43.8330693 C66.3608913,43.8330693 66.0434783,43.5152871 66.0434783,43.1241188 Z" id="Path"></path>
                                <path d="M59.9782609,43.1362376 C59.9782609,42.7383366 60.3010652,42.4158416 60.6993478,42.4158416 C61.0976304,42.4158416 61.4204348,42.7383366 61.4204348,43.1362376 C61.4204348,43.5341386 61.0976304,43.8566337 60.6993478,43.8566337 C60.3010652,43.8566337 59.9782609,43.5341386 59.9782609,43.1362376 Z" id="Path"></path>
                                <ellipse id="Oval" cx="60.4951522" cy="38.8926337" rx="1" ry="1"></ellipse>
                                <path d="M70.0869565,30.1307327 C70.0869565,29.8506535 70.3140652,29.6237624 70.594413,29.6237624 C70.8747609,29.6237624 71.1018696,29.8506535 71.1018696,30.1307327 C71.1018696,30.4108119 70.8747609,30.637703 70.594413,30.637703 C70.3147391,30.637703 70.0869565,30.4108119 70.0869565,30.1307327 Z" id="Path"></path>
                                <path d="M67.4226413,51.5049505 C67.4226413,51.3366337 67.5594457,51.1999604 67.7285978,51.1999604 C67.8970761,51.1999604 68.0338804,51.3366337 68.0338804,51.5049505 C68.0338804,51.6732673 67.8970761,51.8099406 67.7285978,51.8099406 C67.5594457,51.8099406 67.4226413,51.6732673 67.4226413,51.5049505 Z" id="Path"></path>
                                <ellipse id="Oval" cx="61.2371304" cy="44.3467723" rx="1" ry="1"></ellipse>
                                <ellipse id="Oval" cx="78.5641087" cy="37.4195248" rx="1" ry="1"></ellipse>
                                <path d="M18.9433587,49.4851485 C18.9433587,49.3397228 19.0612935,49.221901 19.2061848,49.221901 C19.35175,49.221901 19.4696848,49.3397228 19.4696848,49.4851485 C19.4696848,49.6305743 19.35175,49.748396 19.2061848,49.748396 C19.0612935,49.7477228 18.9433587,49.629901 18.9433587,49.4851485 Z" id="Path"></path>
                                <path d="M37.0652174,4.76134653 C37.0652174,4.36277228 37.3886957,4.03960396 37.7876522,4.03960396 C38.1866087,4.03960396 38.510087,4.36277228 38.510087,4.76134653 C38.510087,5.15992079 38.1866087,5.48309016 37.7876522,5.48309016 C37.3886957,5.48376238 37.0652174,5.16059406 37.0652174,4.76134653 Z" id="Path"></path>
                                <path d="M49.8695652,50.2567129 C49.8695652,50.0163564 50.0643261,49.8217822 50.3042391,49.8217822 C50.5448261,49.8217822 50.739587,50.0163564 50.739587,50.2567129 C50.739587,50.496396 50.5448261,50.6909703 50.3042391,50.6909703 C50.0643261,50.6909703 49.8695652,50.496396 49.8695652,50.2567129 Z" id="Path"></path>
                                <path d="M68.7391304,50.2560396 C68.7391304,50.0163564 68.9338913,49.8217822 69.1738043,49.8217822 C69.4137174,49.8217822 69.6084783,50.0163564 69.6084783,50.2560396 C69.6084783,50.496396 69.4137174,50.6902988 69.1738043,50.6902988 C68.9338913,50.6909703 68.7391304,50.496396 68.7391304,50.2560396 Z" id="Path"></path>
                                <path d="M29.6521739,4.66170297 C29.6521739,4.31833663 29.9305,4.03960396 30.2748696,4.03960396 C30.6192391,4.03960396 30.8975652,4.31766337 30.8975652,4.66170297 C30.8975652,5.00574257 30.6192391,5.28380198 30.2748696,5.28380198 C29.9305,5.28380198 29.6521739,5.00574257 29.6521739,4.66170297 Z" id="Path"></path>
                                <path d="M10.7826087,20.1798416 C10.7826087,19.818297 11.0764348,19.5247525 11.4383261,19.5247525 C11.8002174,19.5247525 12.0940435,19.818297 12.0940435,20.1798416 C12.0940435,20.5413861 11.8002174,20.8349307 11.4383261,20.8349307 C11.0764348,20.8349307 10.7826087,20.5413861 10.7826087,20.1798416 Z" id="Path"></path>
                                <path d="M9.43478261,51.1972673 C9.43478261,50.8094653 9.7495,50.4950495 10.1376739,50.4950495 C10.5258478,50.4950495 10.8405652,50.8094653 10.8405652,51.1972673 C10.8405652,51.5850693 10.5258478,51.8994851 10.1376739,51.8994851 C9.7495,51.8994851 9.43478261,51.5850693 9.43478261,51.1972673 Z" id="Path"></path>
                                <path d="M18.1956522,44.4491089 C18.1956522,44.0700594 18.5036304,43.7623762 18.8830435,43.7623762 C19.2631304,43.7623762 19.5704348,44.0700594 19.5704348,44.4491089 C19.5704348,44.8288317 19.2624565,45.1358416 18.8830435,45.1358416 C18.5036304,45.1358416 18.1956522,44.8281584 18.1956522,44.4491089 Z" id="Path"></path>
                                <path d="M58.6304348,32.6750099 C58.6304348,32.4770693 58.7908261,32.3168317 58.9889565,32.3168317 C59.187087,32.3168317 59.3474783,32.4770693 59.3474783,32.6750099 C59.3474783,32.8729505 59.187087,33.0338614 58.9889565,33.0338614 C58.7908261,33.0331881 58.6304348,32.8729505 58.6304348,32.6750099 Z" id="Path"></path>
                                <path d="M28.9782609,11.4697822 C28.9782609,11.0846733 29.2909565,10.7722772 29.6764348,10.7722772 C30.061913,10.7722772 30.3746087,11.0846733 30.3746087,11.4697822 C30.3746087,11.8548911 30.061913,12.1672871 29.6764348,12.1672871 C29.2909565,12.1672871 28.9782609,11.8548911 28.9782609,11.4697822 Z" id="Path"></path>
                                <path d="M68.8873913,29.2871287 C68.8873913,29.1827723 68.9723043,29.0986139 69.076087,29.0986139 C69.1805435,29.0986139 69.2647826,29.1834455 69.2647826,29.2871287 C69.2647826,29.3914851 69.1805435,29.4756436 69.076087,29.4756436 C68.9723043,29.4756436 68.8873913,29.3914851 68.8873913,29.2871287 Z" id="Path"></path>
                                <path d="M34.387087,14.4752475 C34.387087,14.2988515 34.5299565,14.1561188 34.7065217,14.1561188 C34.883087,14.1561188 35.0259565,14.2988515 35.0259565,14.4752475 C35.0259565,14.6516436 34.883087,14.7943762 34.7065217,14.7943762 C34.5299565,14.7943762 34.387087,14.6516436 34.387087,14.4752475 Z" id="Path"></path>
                                <ellipse id="Oval" cx="67.6211087" cy="34.5662178" rx="1" ry="1"></ellipse>
                                <path d="M26.2826087,17.9392079 C26.2826087,17.6995248 26.4773696,17.5049505 26.7172826,17.5049505 C26.9571957,17.5049505 27.1519565,17.6995248 27.1519565,17.9392079 C27.1519565,18.1788911 26.9571957,18.3734671 26.7172826,18.3734671 C26.4773696,18.3741386 26.2826087,18.1795644 26.2826087,17.9392079 Z" id="Path"></path>
                                <path d="M34.4133696,17.8415842 C34.4133696,17.6793267 34.5447826,17.5487129 34.7065217,17.5487129 C34.8682609,17.5487129 34.9996739,17.68 34.9996739,17.8415842 C34.9996739,18.0031683 34.8682609,18.1344554 34.7065217,18.1344554 C34.5447826,18.1344554 34.4133696,18.0031683 34.4133696,17.8415842 Z" id="Path"></path>
                                <path d="M43.8043478,20.9514059 C43.8043478,20.5353267 44.1419783,20.1980198 44.5584565,20.1980198 C44.9749348,20.1980198 45.3125652,20.5353267 45.3125652,20.9514059 C45.3125652,21.3674851 44.9749348,21.7041188 44.5584565,21.7041188 C44.1419783,21.7041188 43.8043478,21.3668119 43.8043478,20.9514059 Z" id="Path"></path>
                                <path d="M55.2608696,7.11845545 C55.2608696,6.90570297 55.4340652,6.73267327 55.6470217,6.73267327 C55.8599783,6.73267327 56.0331739,6.90570297 56.0331739,7.11845545 C56.0331739,7.33188119 55.8599783,7.50423762 55.6470217,7.50423762 C55.4340652,7.50423762 55.2608696,7.33188119 55.2608696,7.11845545 Z" id="Path"></path>
                                <path d="M48.5217391,21.6253465 C48.5217391,21.2085941 48.8593696,20.8712871 49.2765217,20.8712871 C49.6936739,20.8712871 50.0313043,21.2085941 50.0313043,21.6253465 C50.0313043,22.042099 49.6936739,22.3794059 49.2765217,22.3794059 C48.8593696,22.3794059 48.5217391,22.0414257 48.5217391,21.6253465 Z" id="Path"></path>
                                <path d="M45.826087,4.55263366 C45.826087,4.26918812 46.0558913,4.03960396 46.3396087,4.03960396 C46.6233261,4.03960396 46.8531304,4.26918812 46.8531304,4.55263366 C46.8531304,4.83607921 46.6233261,5.06566337 46.3396087,5.06566337 C46.0558913,5.06566337 45.826087,4.83540594 45.826087,4.55263366 Z" id="Path"></path>
                                <ellipse id="Oval" cx="47.1031522" cy="12.0481188" rx="1" ry="1"></ellipse>
                                <path d="M35.7173913,11.3896634 C35.7173913,11.0483168 35.9943696,10.7722772 36.3353696,10.7722772 C36.6770435,10.7722772 36.9533478,11.0489901 36.9533478,11.3896634 C36.9533478,11.7310099 36.6763696,12.0070495 36.3353696,12.0070495 C35.9943696,12.0070495 35.7173913,11.7310099 35.7173913,11.3896634 Z" id="Path"></path>
                                <path d="M16.9138696,51.5049505 C16.9138696,51.3554851 17.0351739,51.234297 17.1847826,51.234297 C17.3343913,51.234297 17.4556957,51.3554851 17.4556957,51.5049505 C17.4556957,51.6544158 17.3343913,51.775604 17.1847826,51.775604 C17.0351739,51.775604 16.9138696,51.6544158 16.9138696,51.5049505 Z" id="Path"></path>
                                <path d="M9.43478261,36.2904554 C9.43478261,35.9551683 9.70704348,35.6831683 10.0426522,35.6831683 C10.3782609,35.6831683 10.6505217,35.9551683 10.6505217,36.2904554 C10.6505217,36.6257426 10.3782609,36.8977426 10.0426522,36.8977426 C9.70704348,36.8977426 9.43478261,36.6257426 9.43478261,36.2904554 Z" id="Path"></path>
                                <ellipse id="Oval" cx="39.5971087" cy="11.9552079" rx="1" ry="1"></ellipse>
                                <ellipse id="Oval" cx="50.7800217" cy="8.31552475" rx="1" ry="1"></ellipse>
                                <path d="M69.4245,36.6930693 C69.4245,36.5133069 69.5700652,36.3678812 69.75,36.3678812 C69.9299348,36.3678812 70.0755,36.5133069 70.0755,36.6930693 C70.0755,36.8728317 69.9299348,37.0182574 69.75,37.0182574 C69.5700652,37.0182574 69.4245,36.8728317 69.4245,36.6930693 Z" id="Path"></path>
                                <path d="M3.36956522,36.1921584 C3.36956522,35.9107327 3.59802174,35.6831683 3.87904348,35.6831683 C4.16006522,35.6831683 4.38852174,35.9114059 4.38852174,36.1921584 C4.38852174,36.4735842 4.16006522,36.7011485 3.87904348,36.7011485 C3.59802174,36.7011485 3.36956522,36.4735842 3.36956522,36.1921584 Z" id="Path"></path>
                                <path d="M0.673913043,45.8939406 C0.673913043,45.4603564 1.02569565,45.1089109 1.45969565,45.1089109 C1.89369565,45.1089109 2.24547826,45.4603564 2.24547826,45.8939406 C2.24547826,46.3275248 1.89369565,46.6789703 1.45969565,46.6789703 C1.02569565,46.6789703 0.673913043,46.3275248 0.673913043,45.8939406 Z" id="Path"></path>
                                <path d="M70.8909348,54.1980198 C70.8909348,54.0842376 70.9832609,53.9913267 71.0978261,53.9913267 C71.2123913,53.9913267 71.3047174,54.0835644 71.3047174,54.1980198 C71.3047174,54.311802 71.2123913,54.4047129 71.0978261,54.4047129 C70.9832609,54.4047129 70.8909348,54.3124752 70.8909348,54.1980198 Z" id="Path"></path>
                                <path d="M28.3043478,8.44075248 C28.3043478,8.24079208 28.466087,8.07920792 28.6662391,8.07920792 C28.8663913,8.07920792 29.0281304,8.24146535 29.0281304,8.44075248 C29.0281304,8.6400396 28.8657174,8.80229912 28.6662391,8.80229912 C28.466087,8.8029703 28.3043478,8.64071287 28.3043478,8.44075248 Z" id="Path"></path>
                                <path d="M10.7826087,11.5674059 C10.7826087,11.1284356 11.1391087,10.7722772 11.5785,10.7722772 C12.0178913,10.7722772 12.3743913,11.1284356 12.3743913,11.5674059 C12.3743913,12.0063762 12.0178913,12.3625347 11.5785,12.3625347 C11.1391087,12.3625347 10.7826087,12.0063762 10.7826087,11.5674059 Z" id="Path"></path>
                                <path d="M49.1956522,31.6314455 C49.1956522,31.2665347 49.4915,30.970297 49.8574348,30.970297 C50.2226957,30.970297 50.5192174,31.2665347 50.5192174,31.6314455 C50.5192174,31.9963564 50.2233696,32.2925941 49.8574348,32.2925941 C49.4915,32.2925941 49.1956522,31.9963564 49.1956522,31.6314455 Z" id="Path"></path>
                                <path d="M21.5652174,54.9433267 C21.5652174,54.7177822 21.7485217,54.5346535 21.9742826,54.5346535 C22.2000435,54.5346535 22.3833478,54.7177822 22.3833478,54.9433267 C22.3833478,55.1688713 22.2000435,55.352 21.9742826,55.352 C21.7485217,55.352 21.5652174,55.1688713 21.5652174,54.9433267 Z" id="Path"></path>
                                <path d="M33.6956522,14.8697822 C33.6956522,14.4658218 34.0231739,14.1386139 34.4275217,14.1386139 C34.8318696,14.1386139 35.1593913,14.4658218 35.1593913,14.8697822 C35.1593913,15.2737426 34.8318696,15.6009505 34.4275217,15.6009505 C34.0231739,15.6009505 33.6956522,15.2737426 33.6956522,14.8697822 Z" id="Path"></path>
                                <ellipse id="Oval" cx="36.7248913" cy="7.73920792" rx="1" ry="1"></ellipse>
                                <path d="M71.4347826,40.2896634 C71.4347826,39.9765941 71.6888478,39.7227723 72.0022174,39.7227723 C72.315587,39.7227723 72.5696522,39.9765941 72.5696522,40.2896634 C72.5696522,40.6027327 72.315587,40.8565545 72.0022174,40.8565545 C71.6888478,40.8565545 71.4347826,40.6027327 71.4347826,40.2896634 Z" id="Path"></path>
                                <path d="M53.9130435,51.1110891 C53.9130435,50.7710891 54.1893478,50.4950495 54.5296739,50.4950495 C54.87,50.4950495 55.1463043,50.7710891 55.1463043,51.1110891 C55.1463043,51.4510891 54.87,51.7271287 54.5296739,51.7271287 C54.1893478,51.7271287 53.9130435,51.4510891 53.9130435,51.1110891 Z" id="Path"></path>
                                <path d="M9.43478261,32.2441188 C9.43478261,31.912198 9.70367391,31.6435644 10.035913,31.6435644 C10.3681522,31.6435644 10.6370435,31.9128713 10.6370435,32.2441188 C10.6370435,32.5760396 10.3681522,32.8446733 10.035913,32.8446733 C9.70434783,32.8446733 9.43478261,32.5760396 9.43478261,32.2441188 Z" id="Path"></path>
                                <path d="M22.2391304,28.4489109 C22.2391304,27.9823366 22.6178696,27.6039604 23.0848913,27.6039604 C23.551913,27.6039604 23.9306522,27.9823366 23.9306522,28.4489109 C23.9306522,28.9154851 23.551913,29.2938623 23.0848913,29.2938623 C22.6178696,29.2945347 22.2391304,28.9154851 22.2391304,28.4489109 Z" id="Path"></path>
                                <path d="M33.6956522,0.816 C33.6956522,0.365584158 34.061587,0 34.5124348,0 C34.9632826,0 35.3292174,0.365584158 35.3292174,0.816 C35.3292174,1.26708911 34.9632826,1.632 34.5124348,1.632 C34.061587,1.632 33.6956522,1.26641584 33.6956522,0.816 Z" id="Path"></path>
                                <path d="M16.8478261,23.004198 C16.8478261,22.5699406 17.2002826,22.2178218 17.6349565,22.2178218 C18.0696304,22.2178218 18.422087,22.5699406 18.422087,23.004198 C18.422087,23.4384554 18.0696304,23.7905743 17.6349565,23.7905743 C17.2002826,23.7905743 16.8478261,23.4384554 16.8478261,23.004198 Z" id="Path"></path>
                                <path d="M41.1086957,13.3603168 C41.1086957,13.0465743 41.3634348,12.7920792 41.6774783,12.7920792 C41.9915217,12.7920792 42.2462609,13.0465743 42.2462609,13.3603168 C42.2462609,13.6740594 41.9915217,13.9285545 41.6774783,13.9285545 C41.3634348,13.9285545 41.1086957,13.6740594 41.1086957,13.3603168 Z" id="Path"></path>
                                <path d="M6.06521739,42.4602772 C6.06521739,42.0637228 6.38667391,41.7425743 6.7836087,41.7425743 C7.18054348,41.7425743 7.502,42.0637228 7.502,42.4602772 C7.502,42.8568317 7.18054348,43.1779802 6.7836087,43.1779802 C6.38667391,43.1779802 6.06521739,42.8568317 6.06521739,42.4602772 Z" id="Path"></path>
                                <ellipse id="Oval" cx="50.676913" cy="10.2323168" rx="1" ry="1"></ellipse>
                                <path d="M50.5434783,23.6599604 C50.5434783,23.2351287 50.8885217,22.8910891 51.313087,22.8910891 C51.7376522,22.8910891 52.0826957,23.2351287 52.0826957,23.6599604 C52.0826957,24.0847921 51.7383261,24.4288317 51.313087,24.4288317 C50.8878478,24.4288317 50.5434783,24.0847921 50.5434783,23.6599604 Z" id="Path"></path>
                                <path d="M46.5121304,3.02970297 C46.5121304,2.85061386 46.6576957,2.70518812 46.8369565,2.70518812 C47.0162174,2.70518812 47.1617826,2.85061386 47.1617826,3.02970297 C47.1617826,3.20879208 47.0162174,3.35421782 46.8369565,3.35421782 C46.6576957,3.35421782 46.5121304,3.20879208 46.5121304,3.02970297 Z" id="Path"></path>
                                <path d="M27.6304348,12.134297 C27.6304348,11.753901 27.939087,11.4455446 28.3198478,11.4455446 C28.7006087,11.4455446 29.0092609,11.753901 29.0092609,12.134297 C29.0092609,12.5146931 28.7006087,12.8230495 28.3198478,12.8230495 C27.939087,12.8230495 27.6304348,12.5146931 27.6304348,12.134297 Z" id="Path"></path>
                                <path d="M63.3478261,47.5104554 C63.3478261,47.2997228 63.519,47.1287129 63.7299348,47.1287129 C63.9408696,47.1287129 64.1120435,47.2997228 64.1120435,47.5104554 C64.1120435,47.7211881 63.9408696,47.892198 63.7299348,47.892198 C63.5183261,47.892198 63.3478261,47.7211881 63.3478261,47.5104554 Z" id="Path"></path>
                                <path d="M59.9782609,22.3841188 C59.9782609,21.9202376 60.3543043,21.5445545 60.8186304,21.5445545 C61.2829565,21.5445545 61.659,21.9202376 61.659,22.3841188 C61.659,22.848 61.2829565,23.2236832 60.8186304,23.2236832 C60.3543043,23.2236832 59.9782609,22.848 59.9782609,22.3841188 Z" id="Path"></path>
                            </g>
                        </g>
                    </g>
                </g>
            </g>
        </g>
    </g>
</svg>