<?xml version="1.0" encoding="UTF-8"?>
<svg width="522px" height="521px" viewBox="0 0 522 521" version="1.1" xmlns="http://www.w3.org/2000/svg" xmlns:xlink="http://www.w3.org/1999/xlink">
    <!-- Generator: Sketch 55.2 (78181) - https://sketchapp.com -->
    <title>Path Copy 3</title>
    <desc>Created with Sketch.</desc>
    <g id="Page-1" stroke="none" stroke-width="1" fill="none" fill-rule="evenodd">
        <g id="Fotocloud_Upload_Photo-Copy-5" transform="translate(-475.000000, -2175.000000)" fill="#FAFAFA" stroke="#F2F3F7">
            <g id="4" transform="translate(0.000000, 2073.000000)">
                <g id="bg">
                    <path d="M483.92566,326.938722 C496.092738,321.99593 555.189974,318.700736 563.011667,309.638951 C570.83336,300.577167 587.345823,264.330028 627.323365,261.858632 C667.300907,259.387237 678.598908,275.03941 678.598908,275.03941 C678.598908,275.03941 683.81337,208.311723 690.765986,178.654974 C698.587679,148.174425 709.88568,144.055432 709.88568,154.764814 C709.88568,165.474196 710.754757,170.416988 710.754757,170.416988 C710.754757,170.416988 721.183681,179.478772 722.052758,192.65955 C722.052758,206.664126 722.921835,225.611494 722.921835,225.611494 C722.921835,225.611494 735.95799,239.61607 730.743528,254.444445 C725.529066,269.27282 726.398143,298.105771 726.398143,298.105771 C726.398143,298.105771 749.863222,289.043986 764.637532,272.568014 C779.411841,256.092042 884.570158,218.197306 922.809546,179.478772 C961.048934,140.760238 985.38309,109.455891 987.990321,103.689301 C990.597552,97.0989121 989.728475,139.936439 989.728475,139.936439 C989.728475,139.936439 1001.89555,151.46962 992.335706,164.650397 C982.775859,177.831175 975.823243,191.011953 975.823243,191.011953 C975.823243,191.011953 983.644936,207.487925 964.525242,222.316299 C944.536471,237.144674 933.23847,253.620646 933.23847,253.620646 C933.23847,253.620646 935.845701,278.334604 921.940469,286.57259 C908.035237,294.810576 896.737236,304.69616 896.737236,304.69616 C896.737236,304.69616 898.47539,328.586319 887.177389,332.705312 C875.879388,337.648104 866.319541,346.709888 866.319541,346.709888 C866.319541,346.709888 868.926772,364.009659 857.628771,370.600048 C846.33077,377.190437 823.734768,396.137804 823.734768,396.137804 C823.734768,396.137804 847.199847,423.323158 857.628771,467.808283 C867.188618,512.293407 906.297083,555.130934 944.536471,577.373497 C982.775859,598.79226 960.179857,597.144663 930.631239,583.140087 C900.213544,569.135511 866.319541,555.954733 866.319541,555.954733 C866.319541,555.954733 887.177389,590.554274 889.78462,605.382649 C892.391851,620.211024 890.653697,634.2156 877.617542,609.501642 C864.581387,584.787684 822.865691,558.426129 802.87692,542.773955 C782.888149,527.121782 723.790912,490.050845 693.373217,471.103477 C662.955522,452.156109 644.704905,429.913547 637.752289,404.37579 C631.66875,378.838034 620.370749,361.538263 602.120132,350.828881 C583.869515,340.119499 564.749821,328.586319 546.499204,328.586319 C528.248587,329.410118 496.961815,332.705312 486.532891,332.705312 C474.365813,331.881513 471.758582,327.76252 483.92566,326.938722 Z" id="Path-Copy-3" transform="translate(736.000000, 363.000000) scale(-1, 1) translate(-736.000000, -363.000000) "></path>
                </g>
            </g>
        </g>
    </g>
</svg>