<?xml version="1.0" encoding="UTF-8"?>
<svg width="344px" height="310px" viewBox="0 0 344 310" version="1.1" xmlns="http://www.w3.org/2000/svg" xmlns:xlink="http://www.w3.org/1999/xlink">
    <!-- Generator: Sketch 55.2 (78181) - https://sketchapp.com -->
    <title>Path</title>
    <desc>Created with Sketch.</desc>
    <g id="Page-1" stroke="none" stroke-width="1" fill="none" fill-rule="evenodd">
        <g id="UI-kit" transform="translate(-861.000000, -1620.000000)" fill="#FAFAFA" stroke="#F2F3F7">
            <g id="Pop-Up-and-Fields" transform="translate(0.000000, 1265.000000)">
                <g id="Group-8" transform="translate(861.000000, 355.000000)">
                    <g id="Path">
                        <path d="M-17.2081718,92.6475275 C-8.31684554,89.0354875 34.8695963,86.6274608 40.5854489,80.0053874 C46.3013015,73.3833141 58.3681014,46.8950206 87.5824591,45.0890006 C116.796817,43.2829806 125.053048,54.7211073 125.053048,54.7211073 C125.053048,54.7211073 128.863617,5.95856699 133.944375,-15.7136731 C139.660227,-37.9879199 147.916459,-40.9979533 147.916459,-33.1718666 C147.916459,-25.3457799 148.551553,-21.7337398 148.551553,-21.7337398 C148.551553,-21.7337398 156.17269,-15.1116665 156.807785,-5.47955974 C156.807785,4.75455365 157.44288,18.6007071 157.44288,18.6007071 C157.44288,18.6007071 166.969301,28.8348205 163.158732,39.6709405 C159.348164,50.5070606 159.983259,71.5772941 159.983259,71.5772941 C159.983259,71.5772941 177.130816,64.9552207 187.927427,52.9150873 C198.724037,40.8749539 275.5705,13.182647 303.514668,-15.1116665 C331.458836,-43.40598 349.241489,-66.2822334 351.146773,-70.4962801 C353.052057,-75.3123335 352.416963,-44.0079866 352.416963,-44.0079866 C352.416963,-44.0079866 361.308289,-35.5798933 354.322247,-25.9477865 C347.336205,-16.3156798 342.255447,-6.68357308 342.255447,-6.68357308 C342.255447,-6.68357308 347.9713,5.35656032 333.999215,16.1926804 C319.392037,27.0288005 311.135805,39.0689339 311.135805,39.0689339 C311.135805,39.0689339 313.041089,57.129134 302.879574,63.1492007 C292.718058,69.1692674 284.461826,76.3933474 284.461826,76.3933474 C284.461826,76.3933474 285.732016,93.8515409 277.475784,96.8615742 C269.219553,100.473614 262.233511,107.095688 262.233511,107.095688 C262.233511,107.095688 264.138795,119.737828 255.882563,124.553881 C247.626332,129.369934 231.113869,143.216088 231.113869,143.216088 C231.113869,143.216088 248.261426,163.082308 255.882563,195.590668 C262.868605,228.099028 291.447868,259.403375 319.392037,275.657555 C347.336205,291.309729 330.823742,290.105715 309.230521,279.871602 C287.002205,269.637489 262.233511,260.005382 262.233511,260.005382 C262.233511,260.005382 277.475784,285.289662 279.381068,296.125782 C281.286353,306.961902 280.016163,317.196016 270.489742,299.135815 C260.963321,281.075615 230.478774,261.811402 215.871595,250.373275 C201.264416,238.935148 158.077974,211.844848 135.849659,197.998695 C113.621343,184.152541 100.284354,167.898361 95.2035959,149.236155 C90.7579328,130.573948 82.5017012,117.931808 69.1647119,110.105721 C55.8277225,102.279634 41.8556383,93.8515409 28.518649,93.8515409 C15.1816596,94.4535475 -7.68175081,96.8615742 -15.3028876,96.8615742 C-24.1942139,96.2595675 -26.0994981,93.2495342 -17.2081718,92.6475275 Z"></path>
                    </g>
                </g>
            </g>
        </g>
    </g>
</svg>