<?xml version="1.0" encoding="UTF-8"?>
<svg width="375px" height="375px" viewBox="0 0 375 375" version="1.1" xmlns="http://www.w3.org/2000/svg" xmlns:xlink="http://www.w3.org/1999/xlink">
    <!-- Generator: Sketch 55.2 (78181) - https://sketchapp.com -->
    <title>Path</title>
    <desc>Created with Sketch.</desc>
    <g id="Page-1" stroke="none" stroke-width="1" fill="none" fill-rule="evenodd">
        <g id="Fotocloud_Upload_Photo-Copy-5" transform="translate(-566.000000, -2268.000000)" fill="#FAFAFA" stroke="#F2F3F7">
            <g id="4" transform="translate(0.000000, 2073.000000)">
                <g id="bg">
                    <path d="M572.685137,356.632968 C581.412675,353.087465 623.803577,350.723797 629.414138,344.223709 C635.024699,337.723621 646.869215,311.72327 675.545414,309.950519 C704.221612,308.177768 712.325755,319.405192 712.325755,319.405192 C712.325755,319.405192 716.066129,271.540909 721.053294,250.267895 C726.663855,228.403963 734.767998,225.449377 734.767998,233.131299 C734.767998,240.813221 735.391393,244.358724 735.391393,244.358724 C735.391393,244.358724 742.872141,250.858812 743.495536,260.313485 C743.495536,270.359075 744.118932,283.950168 744.118932,283.950168 C744.118932,283.950168 753.469866,293.995758 749.729492,304.632265 C745.989119,315.268773 746.612514,335.95087 746.612514,335.95087 C746.612514,335.95087 763.444196,329.450782 774.041922,317.632441 C784.639647,305.814099 860.070517,278.631914 887.499924,250.858812 C914.929332,223.085709 932.384409,200.63086 934.254596,196.494441 C936.124783,191.767104 935.501387,222.494792 935.501387,222.494792 C935.501387,222.494792 944.228926,230.767631 937.371574,240.222304 C930.514222,249.676977 925.527057,259.131651 925.527057,259.131651 C925.527057,259.131651 931.137618,270.949992 917.422914,281.586499 C903.084815,292.223007 894.980672,304.041348 894.980672,304.041348 C894.980672,304.041348 896.850859,321.76886 886.876529,327.678031 C876.902199,333.587202 868.798056,340.678207 868.798056,340.678207 C868.798056,340.678207 870.044847,357.814802 861.940704,360.769387 C853.836561,364.31489 846.979209,370.814978 846.979209,370.814978 C846.979209,370.814978 848.849396,383.224236 840.745253,387.951573 C832.64111,392.678909 816.432824,406.270002 816.432824,406.270002 C816.432824,406.270002 833.264505,425.770265 840.745253,457.679787 C847.602605,489.589309 875.655408,520.316997 903.084815,536.271758 C930.514222,551.635602 914.305936,550.453768 893.110485,540.408178 C871.291638,530.362587 846.979209,520.907914 846.979209,520.907914 C846.979209,520.907914 861.940704,545.726431 863.810891,556.362939 C865.681078,566.999446 864.434286,577.045036 855.083352,559.317524 C845.732418,541.590012 815.809428,522.680666 801.471329,511.453241 C787.13323,500.225817 744.742328,473.634548 722.923481,460.043456 C701.104634,446.452363 688.013326,430.497602 683.026161,412.179173 C678.662392,393.860743 670.558249,381.451485 657.466941,373.769563 C644.375633,366.087641 630.660929,357.814802 617.569621,357.814802 C604.478313,358.405719 582.036071,360.769387 574.555323,360.769387 C565.827785,360.17847 563.957598,357.223885 572.685137,356.632968 Z" id="Path"></path>
                </g>
            </g>
        </g>
    </g>
</svg>